<svg xmlns="http://www.w3.org/2000/svg" width="52.448" height="76" viewBox="0 0 52.448 76"><defs><style>.a{fill:#ff7838;}.b{fill:#343434;}</style></defs><g transform="translate(-544 -3576.001)"><path class="a" d="M117.714,182.427A17.714,17.714,0,1,0,100,164.714,17.733,17.733,0,0,0,117.714,182.427Zm0-32.458a14.745,14.745,0,1,1-14.745,14.745A14.762,14.762,0,0,1,117.714,149.969Zm0,0" transform="translate(452.51 3437.511)"/><path class="b" d="M58.7,125.97a7.86,7.86,0,0,0-1.7,4.254,7.86,7.86,0,0,0,1.7,4.254,7.986,7.986,0,0,1,1.1,2.022,8.333,8.333,0,0,1,.076,2.4,6.039,6.039,0,0,0,4.194,7.223,8.164,8.164,0,0,1,2.011,1.239,8.157,8.157,0,0,1,1.239,2.011,7.808,7.808,0,0,0,2.789,3.559,4.586,4.586,0,0,0,.746.342v25.236a1.484,1.484,0,0,0,2.254,1.269l10.116-6.132,10.115,6.132a1.485,1.485,0,0,0,2.254-1.269V161.025a1.484,1.484,0,1,0-2.969,0v14.855l-2.969-1.8V153.615a9.357,9.357,0,0,1,2.249-.042c.236.013.476.026.72.036v1.009a1.484,1.484,0,0,0,2.969,0V153.28a4.549,4.549,0,0,0,.746-.342,7.8,7.8,0,0,0,2.789-3.559,5.113,5.113,0,0,1,3.25-3.25,6.038,6.038,0,0,0,4.194-7.223,8.333,8.333,0,0,1,.076-2.4,7.97,7.97,0,0,1,1.1-2.022,7.865,7.865,0,0,0,1.7-4.255,7.86,7.86,0,0,0-1.7-4.254,8,8,0,0,1-1.1-2.022,8.338,8.338,0,0,1-.076-2.405,7.76,7.76,0,0,0-.635-4.434,7.8,7.8,0,0,0-3.559-2.789,5.117,5.117,0,0,1-3.25-3.251,7.808,7.808,0,0,0-2.789-3.559,7.768,7.768,0,0,0-4.435-.635,8.305,8.305,0,0,1-2.4-.076,7.987,7.987,0,0,1-2.022-1.1,7.86,7.86,0,0,0-4.254-1.7,7.86,7.86,0,0,0-4.254,1.7,7.987,7.987,0,0,1-2.022,1.1,8.334,8.334,0,0,1-2.4.076,7.762,7.762,0,0,0-4.435.635,7.8,7.8,0,0,0-2.789,3.559,8.163,8.163,0,0,1-1.239,2.011,8.18,8.18,0,0,1-2.011,1.239,7.8,7.8,0,0,0-3.559,2.789,7.762,7.762,0,0,0-.635,4.435,8.333,8.333,0,0,1-.076,2.4,7.987,7.987,0,0,1-1.1,2.022Zm15.119,27.639c.244-.009.484-.022.72-.036a9.357,9.357,0,0,1,2.249.042v20.466l-2.969,1.8Zm8.632,17.039-2.694,1.633V155.255a5.622,5.622,0,0,0,6.927,0v17.026l-2.694-1.633a1.486,1.486,0,0,0-1.538,0ZM61.183,127.6a10.123,10.123,0,0,0,1.484-2.888,10.511,10.511,0,0,0,.172-3.336,5.624,5.624,0,0,1,.241-2.783,5.651,5.651,0,0,1,2.322-1.623,10.308,10.308,0,0,0,2.777-1.793,10.319,10.319,0,0,0,1.793-2.777,5.641,5.641,0,0,1,1.623-2.322,5.631,5.631,0,0,1,2.782-.241,10.515,10.515,0,0,0,3.337-.172,10.133,10.133,0,0,0,2.888-1.484,5.66,5.66,0,0,1,2.622-1.215,5.66,5.66,0,0,1,2.622,1.215,10.123,10.123,0,0,0,2.888,1.484,10.511,10.511,0,0,0,3.336.172,5.629,5.629,0,0,1,2.782.241,5.634,5.634,0,0,1,1.623,2.322,7.853,7.853,0,0,0,4.571,4.571,5.633,5.633,0,0,1,2.322,1.622,5.622,5.622,0,0,1,.241,2.782,10.514,10.514,0,0,0,.172,3.337,10.123,10.123,0,0,0,1.484,2.888,5.66,5.66,0,0,1,1.215,2.622,5.66,5.66,0,0,1-1.215,2.622,10.123,10.123,0,0,0-1.484,2.888,10.511,10.511,0,0,0-.172,3.336,5.624,5.624,0,0,1-.241,2.783,5.652,5.652,0,0,1-2.322,1.623,7.85,7.85,0,0,0-4.57,4.57,5.641,5.641,0,0,1-1.623,2.322,5.613,5.613,0,0,1-2.782.241,10.514,10.514,0,0,0-3.337.172,6.4,6.4,0,0,0-1.253.5l-.023.012a17.5,17.5,0,0,0-1.611.977,5.66,5.66,0,0,1-2.622,1.215,5.66,5.66,0,0,1-2.622-1.215,17.6,17.6,0,0,0-1.61-.977l-.023-.012a6.376,6.376,0,0,0-1.254-.5,7.505,7.505,0,0,0-1.951-.223c-.465,0-.929.026-1.385.051a5.611,5.611,0,0,1-2.782-.241,5.634,5.634,0,0,1-1.623-2.322,10.357,10.357,0,0,0-1.793-2.777,10.357,10.357,0,0,0-2.778-1.794,5.633,5.633,0,0,1-2.322-1.622,5.622,5.622,0,0,1-.241-2.782,10.514,10.514,0,0,0-.172-3.337,10.123,10.123,0,0,0-1.484-2.888,5.66,5.66,0,0,1-1.215-2.622,5.66,5.66,0,0,1,1.215-2.622Zm0,0" transform="translate(487 3472)"/><path class="a" d="M139.47,209.44l7.052,5.638a1.485,1.485,0,0,0,2.036-.172l9.662-10.854A1.484,1.484,0,0,0,156,202.079l-8.726,9.8-5.954-4.759a1.484,1.484,0,0,0-1.853,2.319Zm0,0" transform="translate(421.3 3393.732)"/></g></svg>