<svg xmlns="http://www.w3.org/2000/svg" width="56.962" height="76" viewBox="0 0 56.962 76"><defs><style>.a{fill:#343434;}.b{fill:#ff7838;}</style></defs><g transform="translate(-931.96 -3576)"><path class="a" d="M53.468,27.368h-2.38a3.491,3.491,0,0,0-2.3,6.116V35.62a3.65,3.65,0,0,1-3.646,3.646H29.593v-6.1H34.43a1.113,1.113,0,0,0,0-2.227H17.162a3.647,3.647,0,0,1-3.622-4.064L16.011,5.454a3.646,3.646,0,0,1,3.622-3.228H37.327a3.645,3.645,0,0,1,3.622,3.229l2.472,21.418A3.647,3.647,0,0,1,39.8,30.938h-.609a1.113,1.113,0,1,0,0,2.227H39.8a5.874,5.874,0,0,0,5.834-6.546L43.161,5.2A5.871,5.871,0,0,0,37.327,0H19.633A5.871,5.871,0,0,0,13.8,5.2L11.327,26.618a5.873,5.873,0,0,0,5.834,6.546H27.367v6.1H11.821A3.651,3.651,0,0,1,8.175,35.62V33.484a3.491,3.491,0,0,0-2.3-6.116H3.492a3.493,3.493,0,0,0,0,6.986h2.38l.077,0V35.62A5.882,5.882,0,0,0,9.9,41.169a3.471,3.471,0,0,0-.384,1.59,5.879,5.879,0,0,0,5.873,5.873h1.19a1.113,1.113,0,1,0,0-2.227h-1.19a3.65,3.65,0,0,1-3.646-3.646,1.268,1.268,0,0,1,1.266-1.267H43.948a1.268,1.268,0,0,1,1.267,1.267,3.65,3.65,0,0,1-3.647,3.646H21.341a1.113,1.113,0,1,0,0,2.227h6.026V69.014H18.961a3.5,3.5,0,0,0-3.493,3.493v2.38a1.113,1.113,0,1,0,2.227,0v-2.38a1.268,1.268,0,0,1,1.266-1.266H38a1.268,1.268,0,0,1,1.266,1.266v2.38a1.113,1.113,0,0,0,2.227,0v-2.38A3.5,3.5,0,0,0,38,69.014H29.593V48.632H41.569a5.88,5.88,0,0,0,5.873-5.873,3.478,3.478,0,0,0-.384-1.59,5.881,5.881,0,0,0,3.954-5.549V34.352l.077,0h2.38a3.493,3.493,0,0,0,0-6.986ZM3.492,32.127a1.267,1.267,0,0,1,0-2.533h2.38a1.267,1.267,0,1,1,0,2.533Zm49.976,0h-2.38a1.267,1.267,0,1,1,0-2.533h2.38a1.267,1.267,0,0,1,0,2.533Zm0,0" transform="translate(931.961 3576)"/><path class="b" d="M153.383,53.91a7.108,7.108,0,0,0,5.032-6.766,7.154,7.154,0,0,0-7.064-7.063,7.071,7.071,0,0,0-7.062,7.062,1.113,1.113,0,1,0,2.227,0,4.841,4.841,0,0,1,4.836-4.836,4.928,4.928,0,0,1,4.837,4.836,4.867,4.867,0,0,1-3.445,4.633,3.475,3.475,0,0,0-2.5,3.34v.355a1.113,1.113,0,1,0,2.227,0v-.355a1.263,1.263,0,0,1,.918-1.208Zm0,0" transform="translate(809.089 3541.868)"/><path class="b" d="M185.529,168.34h-.012a1.119,1.119,0,1,0,.012,0Zm0,0" transform="translate(774.924 3432.648)"/></g></svg>