<svg xmlns="http://www.w3.org/2000/svg" width="74.069" height="76" viewBox="0 0 74.069 76"><defs><style>.a{fill:#ff7838;}.b{fill:#343434;}</style></defs><g transform="translate(-1313 -3576)"><path class="a" d="M43.1,270.4a5.873,5.873,0,1,0,11.56-1.469,1.113,1.113,0,0,0-2.156.555,3.644,3.644,0,1,1-2.619-2.617,1.113,1.113,0,0,0,.555-2.156A5.876,5.876,0,0,0,43.1,270.4Zm0,0" transform="translate(1276.296 3350.734)"/><path class="b" d="M63.359,33.371v-16.9c6.794-.354,9.227-3.877,9.332-4.034a1.113,1.113,0,0,0-1.846-1.245c-.088.126-2.229,3.084-8.6,3.084a28.19,28.19,0,0,1-6.819-1.542,62.763,62.763,0,0,0-17.055-3.2V6.8a3.493,3.493,0,1,0-2.227,0V9.534a62.755,62.755,0,0,0-17.055,3.2,28.205,28.205,0,0,1-6.819,1.543c-6.371,0-8.512-2.958-8.593-3.074a1.113,1.113,0,0,0-1.853,1.235c.1.158,2.538,3.68,9.332,4.034v15.7c-.318.027-.634.064-.948.114a1.7,1.7,0,0,0-1.432,1.691v1.124a10.622,10.622,0,0,0-3.453,1.989l-.969-.56a1.7,1.7,0,0,0-2.181.394A13.11,13.11,0,0,0,.112,40.5a1.7,1.7,0,0,0,.75,2.086l.971.561a10.317,10.317,0,0,0,0,3.985l-.971.561a1.7,1.7,0,0,0-.75,2.086,13.087,13.087,0,0,0,2.062,3.571,1.7,1.7,0,0,0,2.181.394l.969-.56a10.622,10.622,0,0,0,3.453,1.989V56.3a1.7,1.7,0,0,0,1.432,1.691,13.075,13.075,0,0,0,4.123,0A1.7,1.7,0,0,0,15.764,56.3V55.172a10.616,10.616,0,0,0,3.453-1.989l.969.56a1.7,1.7,0,0,0,2.181-.394,13.128,13.128,0,0,0,2.061-3.571,1.7,1.7,0,0,0-.749-2.086l-.971-.561a10.29,10.29,0,0,0,0-3.986l.971-.561a1.7,1.7,0,0,0,.749-2.086,13.065,13.065,0,0,0-2.061-3.571,1.7,1.7,0,0,0-2.181-.394l-.969.56a10.61,10.61,0,0,0-3.453-1.989V33.982a1.7,1.7,0,0,0-1.432-1.691c-.314-.05-.63-.088-.948-.114V16.438a39.057,39.057,0,0,0,6.346-1.57A60.068,60.068,0,0,1,36.145,11.76v8.6a4.69,4.69,0,0,0-3.569,4.548V62.162a2.3,2.3,0,0,0-1.19,2.015v2.456H29.455a3.489,3.489,0,0,0-3.314,2.389l-1.584,4.751H22.98a1.113,1.113,0,0,0,0,2.227H51.537a1.113,1.113,0,0,0,0-2.227H49.96l-1.584-4.751a3.488,3.488,0,0,0-3.314-2.388H43.131V64.177a2.3,2.3,0,0,0-1.19-2.015V24.911a4.69,4.69,0,0,0-3.57-4.548v-8.6a60.068,60.068,0,0,1,16.415,3.108,39.042,39.042,0,0,0,6.346,1.57V34.43a1.114,1.114,0,0,0,1.113,1.113,9.588,9.588,0,1,1-4.264,1,1.113,1.113,0,0,0-.991-1.994,11.828,11.828,0,1,0,6.368-1.175ZM14.373,37.01a8.4,8.4,0,0,1,3.892,2.242,1.115,1.115,0,0,0,1.351.184l1.3-.749a10.848,10.848,0,0,1,1.267,2.194l-1.3.751a1.114,1.114,0,0,0-.516,1.261,8.2,8.2,0,0,1,0,4.493,1.112,1.112,0,0,0,.516,1.261l1.3.751a10.81,10.81,0,0,1-1.266,2.194l-1.3-.749a1.114,1.114,0,0,0-1.351.184,8.4,8.4,0,0,1-3.892,2.242,1.113,1.113,0,0,0-.836,1.078v1.5a10.888,10.888,0,0,1-2.533,0v-1.5a1.113,1.113,0,0,0-.835-1.078,8.4,8.4,0,0,1-3.893-2.242,1.114,1.114,0,0,0-1.351-.184l-1.3.75A10.908,10.908,0,0,1,2.361,49.4l1.3-.751a1.113,1.113,0,0,0,.516-1.261,8.2,8.2,0,0,1,0-4.493,1.113,1.113,0,0,0-.517-1.261l-1.3-.751a10.844,10.844,0,0,1,.569-1.134,11.022,11.022,0,0,1,.7-1.06l1.3.749a1.113,1.113,0,0,0,1.351-.184,8.394,8.394,0,0,1,3.893-2.242A1.113,1.113,0,0,0,11,35.932v-1.5a10.888,10.888,0,0,1,2.533,0v1.5A1.113,1.113,0,0,0,14.373,37.01ZM37.258,2.226a1.266,1.266,0,1,1-1.266,1.266A1.268,1.268,0,0,1,37.258,2.226Zm9.005,67.5,1.349,4.047H26.9l1.349-4.047a1.265,1.265,0,0,1,1.2-.866H45.062a1.264,1.264,0,0,1,1.2.866ZM33.612,66.633V64.177a.076.076,0,0,1,.077-.077h7.139a.076.076,0,0,1,.077.077v2.456Zm6.1-41.722V61.874H34.8V24.911a2.456,2.456,0,1,1,4.913,0Zm0,0" transform="translate(1313 3576)"/><path class="a" d="M392.48,256.516a1.114,1.114,0,0,0-1.113,1.113v.161c-2.1.324-3.569,1.553-3.569,3.111,0,2.16,1.921,3.01,3.569,3.515v2.677c-.852-.21-1.343-.623-1.343-.838a1.113,1.113,0,1,0-2.227,0c0,1.559,1.473,2.788,3.569,3.111v.161a1.113,1.113,0,0,0,2.227,0v-.161c2.1-.324,3.57-1.553,3.57-3.111,0-2.16-1.922-3.011-3.57-3.515v-2.677c.852.21,1.343.623,1.343.838a1.113,1.113,0,0,0,2.227,0c0-1.559-1.473-2.788-3.57-3.111v-.161A1.113,1.113,0,0,0,392.48,256.516Zm-2.456,4.386c0-.215.491-.627,1.343-.838v1.993C390.276,261.642,390.024,261.3,390.024,260.9Zm4.913,5.354c0,.215-.491.627-1.343.838V265.1C394.684,265.516,394.937,265.858,394.937,266.256Zm0,0" transform="translate(982.766 3357.56)"/></g></svg>