<svg xmlns="http://www.w3.org/2000/svg" width="76" height="76" viewBox="0 0 76 76"><defs><style>.a{fill:#343434;}.b{fill:#ff7838;}</style></defs><path class="a" d="M39.007,47.085a1.2,1.2,0,0,0-1.6-.57,19.108,19.108,0,0,1-3.035,1.135,1.2,1.2,0,0,0-.853.92l-1.269,6.347A1.349,1.349,0,0,1,30.931,56H27.469a1.349,1.349,0,0,1-1.319-1.082L24.88,48.571a1.2,1.2,0,0,0-.853-.92A19.066,19.066,0,0,1,19.812,45.9a1.2,1.2,0,0,0-1.255.047l-5.386,3.591a1.349,1.349,0,0,1-1.7-.168L9.025,46.926a1.349,1.349,0,0,1-.168-1.7l3.591-5.386a1.2,1.2,0,0,0,.047-1.255,19.061,19.061,0,0,1-1.746-4.214,1.2,1.2,0,0,0-.92-.853L3.481,32.25A1.349,1.349,0,0,1,2.4,30.931V27.468a1.349,1.349,0,0,1,1.082-1.319l6.347-1.269a1.2,1.2,0,0,0,.92-.853,19.066,19.066,0,0,1,1.746-4.214,1.2,1.2,0,0,0-.047-1.255l-3.59-5.386a1.349,1.349,0,0,1,.168-1.7l2.449-2.449a1.349,1.349,0,0,1,1.7-.168l5.386,3.591a1.2,1.2,0,0,0,1.255.047,19.066,19.066,0,0,1,4.214-1.746,1.2,1.2,0,0,0,.853-.92l1.269-6.347A1.349,1.349,0,0,1,27.469,2.4h3.463a1.349,1.349,0,0,1,1.319,1.082L33.52,9.828a1.2,1.2,0,0,0,.853.92,19.067,19.067,0,0,1,4.214,1.746,1.2,1.2,0,0,0,1.255-.047l5.386-3.591a1.35,1.35,0,0,1,1.7.168l2.449,2.449a1.349,1.349,0,0,1,.168,1.7l-3.591,5.386a1.2,1.2,0,0,0-.047,1.255,19.066,19.066,0,0,1,1.746,4.214,1.2,1.2,0,0,0,.92.853l6.347,1.269A1.349,1.349,0,0,1,56,27.469v3.463a1.349,1.349,0,0,1-1.082,1.319L48.572,33.52a1.2,1.2,0,0,0-.92.854,19.1,19.1,0,0,1-1.17,3.107,1.2,1.2,0,1,0,2.164,1.038,21.523,21.523,0,0,0,1.1-2.787L55.39,34.6a3.756,3.756,0,0,0,3.01-3.673V27.468A3.756,3.756,0,0,0,55.389,23.8L49.75,22.668a21.473,21.473,0,0,0-1.4-3.38L51.54,14.5a3.756,3.756,0,0,0-.468-4.726L48.623,7.328A3.756,3.756,0,0,0,43.9,6.86l-4.785,3.19a21.487,21.487,0,0,0-3.38-1.4L34.6,3.01A3.755,3.755,0,0,0,30.931,0H27.469A3.756,3.756,0,0,0,23.8,3.011L22.668,8.65a21.473,21.473,0,0,0-3.38,1.4L14.5,6.86a3.756,3.756,0,0,0-4.726.468L7.328,9.777A3.756,3.756,0,0,0,6.86,14.5l3.19,4.785a21.481,21.481,0,0,0-1.4,3.38L3.011,23.8A3.755,3.755,0,0,0,0,27.469v3.463A3.756,3.756,0,0,0,3.011,34.6L8.65,35.732a21.47,21.47,0,0,0,1.4,3.38L6.86,43.9a3.756,3.756,0,0,0,.468,4.726l2.449,2.449a3.756,3.756,0,0,0,4.726.468l4.785-3.19a21.482,21.482,0,0,0,3.38,1.4L23.8,55.39a3.755,3.755,0,0,0,3.673,3.01h3.463A3.756,3.756,0,0,0,34.6,55.389l1.128-5.639a21.5,21.5,0,0,0,2.706-1.066A1.2,1.2,0,0,0,39.007,47.085Z"/><path class="b" d="M151.016,126a1.2,1.2,0,0,0,1.615-.52,13.49,13.49,0,0,0-21.425-15.807,1.2,1.2,0,0,0,1.675,1.718A11.091,11.091,0,0,1,150.5,124.386,1.2,1.2,0,0,0,151.016,126Z" transform="translate(-111.422 -90.133)"/><path class="b" d="M108.1,161.748a1.2,1.2,0,0,0-1.525.744,13.492,13.492,0,0,0,20.662,15.322,1.2,1.2,0,1,0-1.408-1.944,11.095,11.095,0,0,1-16.985-12.6A1.2,1.2,0,0,0,108.1,161.748Z" transform="translate(-90.134 -137.683)"/><path class="a" d="M284.806,263.562l-3.47-.694a14.516,14.516,0,0,0-.761-1.837l1.963-2.945a2.881,2.881,0,0,0-.359-3.625l-1.609-1.609a2.881,2.881,0,0,0-3.625-.359L274,254.457a14.5,14.5,0,0,0-1.837-.761l-.694-3.47a2.88,2.88,0,0,0-2.817-2.309h-2.276a2.881,2.881,0,0,0-2.817,2.309l-.694,3.47a14.54,14.54,0,0,0-1.837.761l-2.945-1.963a2.881,2.881,0,0,0-3.625.359l-1.609,1.609a2.881,2.881,0,0,0-.359,3.625l1.963,2.945a14.5,14.5,0,0,0-.98,2.55,1.2,1.2,0,1,0,2.311.647,12.11,12.11,0,0,1,1.11-2.678,1.2,1.2,0,0,0-.047-1.255l-2.36-3.539a.474.474,0,0,1,.059-.6l1.609-1.609a.475.475,0,0,1,.6-.059l3.539,2.36a1.2,1.2,0,0,0,1.255.047,12.11,12.11,0,0,1,2.678-1.11,1.2,1.2,0,0,0,.853-.92l.834-4.171a.474.474,0,0,1,.464-.38h2.276a.474.474,0,0,1,.464.38l.834,4.171a1.2,1.2,0,0,0,.853.92,12.109,12.109,0,0,1,2.678,1.11,1.2,1.2,0,0,0,1.255-.047l3.539-2.36a.474.474,0,0,1,.6.059l1.609,1.609a.474.474,0,0,1,.059.6l-2.36,3.539a1.2,1.2,0,0,0-.047,1.255,12.112,12.112,0,0,1,1.11,2.678,1.2,1.2,0,0,0,.92.853l4.171.834a.474.474,0,0,1,.38.464v2.276a.474.474,0,0,1-.38.464l-4.171.834a1.2,1.2,0,0,0-.92.853,12.11,12.11,0,0,1-1.11,2.678,1.2,1.2,0,0,0,.047,1.255l2.36,3.539a.474.474,0,0,1-.059.6l-1.609,1.609a.474.474,0,0,1-.6.059l-3.539-2.36a1.2,1.2,0,0,0-1.255-.047,12.113,12.113,0,0,1-2.678,1.11,1.2,1.2,0,0,0-.853.92l-.834,4.171a.474.474,0,0,1-.464.38h-2.276a.474.474,0,0,1-.464-.38l-.834-4.171a1.2,1.2,0,0,0-.853-.92,12.109,12.109,0,0,1-2.678-1.11,1.2,1.2,0,0,0-1.255.047l-3.539,2.36a.474.474,0,0,1-.6-.059l-1.609-1.609a.474.474,0,0,1-.059-.6l2.36-3.539a1.2,1.2,0,0,0,.047-1.255,12.111,12.111,0,0,1-1.11-2.678,1.2,1.2,0,0,0-.92-.853l-4.171-.834a.474.474,0,0,1-.38-.464v-2.276a.474.474,0,0,1,.38-.464l.255-.051a1.2,1.2,0,1,0-.471-2.353l-.255.051a2.881,2.881,0,0,0-2.309,2.817v2.276a2.881,2.881,0,0,0,2.309,2.817l3.47.694a14.536,14.536,0,0,0,.761,1.837l-1.963,2.945a2.88,2.88,0,0,0,.359,3.625l1.609,1.609a2.88,2.88,0,0,0,3.625.359l2.945-1.963a14.494,14.494,0,0,0,1.837.761l.694,3.47a2.881,2.881,0,0,0,2.817,2.309h2.276a2.881,2.881,0,0,0,2.817-2.309l.694-3.47a14.512,14.512,0,0,0,1.837-.761l2.945,1.963a2.881,2.881,0,0,0,3.625-.359l1.609-1.609a2.881,2.881,0,0,0,.359-3.625L280.575,274a14.5,14.5,0,0,0,.761-1.837l3.47-.694a2.88,2.88,0,0,0,2.309-2.817v-2.276A2.88,2.88,0,0,0,284.806,263.562Z" transform="translate(-211.115 -211.117)"/><path class="b" d="M341.405,337.086a4.325,4.325,0,0,1,4.32,4.32,1.2,1.2,0,0,0,2.4,0,6.72,6.72,0,1,0-6.72,6.72,6.658,6.658,0,0,0,4.106-1.4,1.2,1.2,0,0,0-1.467-1.9,4.278,4.278,0,0,1-2.638.9,4.32,4.32,0,1,1,0-8.64Z" transform="translate(-285.005 -285.006)"/><path class="b" d="M162.085,154.774a7.311,7.311,0,1,0-7.311,7.311A7.319,7.319,0,0,0,162.085,154.774Zm-12.222,0a4.911,4.911,0,1,1,4.911,4.911A4.917,4.917,0,0,1,149.863,154.774Z" transform="translate(-125.574 -125.574)"/></svg>