<svg xmlns="http://www.w3.org/2000/svg" width="54.712" height="76" viewBox="0 0 54.712 76"><defs><style>.a{fill:#343434;}.b{fill:#ff7838;}</style></defs><g transform="translate(11.077 6.952)"><path class="a" d="M73,47.771a.913.913,0,0,1-.353-.07c-2.72-1.121-3.474-3.936-3.681-5.515-1.821-13.8-10.335-23.82-20.245-23.82-5.509,0-10.692,3.06-14.593,8.618a.927.927,0,0,1-1.518-1.065c4.259-6.067,9.98-9.407,16.111-9.407,10.853,0,20.14,10.7,22.083,25.433.155,1.182.693,3.278,2.549,4.043A.927.927,0,0,1,73,47.771Z" transform="translate(-32.441 -16.511)"/></g><g transform="translate(0.181 22.183)"><path class="a" d="M21.615,50.157a.927.927,0,1,1,0-1.854c3.357,0,3.844-2.074,4.1-4.579.021-.212.042-.408.065-.582a39.076,39.076,0,0,1,2.513-9.624.927.927,0,1,1,1.717.7,37.278,37.278,0,0,0-2.393,9.168c-.02.159-.039.337-.058.529C27.369,45.782,26.919,50.157,21.615,50.157Z" transform="translate(-20.688 -32.94)"/></g><g transform="translate(5.414 13.907)"><path class="a" d="M27.261,53.679a.927.927,0,0,1-.5-1.709c3.22-2.055,4.179-7.595,4.5-9.416l.018-.1c1.891-10.857,8.882-18.441,17-18.441s15.111,7.584,17,18.442a5.445,5.445,0,0,0,1.719,2.966.927.927,0,0,1-1.22,1.4,7.312,7.312,0,0,1-2.325-4.045c-1.733-9.953-7.972-16.9-15.174-16.9S34.834,32.818,33.1,42.77l-.018.1c-.35,2.02-1.415,8.167-5.324,10.662A.92.92,0,0,1,27.261,53.679Z" transform="translate(-26.333 -24.012)"/></g><g transform="translate(36.395 28.8)"><path class="b" d="M62.285,49.387a.927.927,0,0,1-.877-.629,10.817,10.817,0,0,1-.446-2.806,11.023,11.023,0,0,0-.243-1.936,18.8,18.8,0,0,0-.895-2.65.927.927,0,1,1,1.706-.726,20.607,20.607,0,0,1,.985,2.914,12.464,12.464,0,0,1,.3,2.27,9.348,9.348,0,0,0,.35,2.336.927.927,0,0,1-.579,1.176A.964.964,0,0,1,62.285,49.387Z" transform="translate(-59.75 -40.076)"/></g><g transform="translate(11.363 20.86)"><path class="b" d="M33.676,56.2a.927.927,0,0,1-.744-1.478c2.22-3,3.19-7.821,3.711-10.409.119-.59.215-1.064.3-1.381,1.759-6.828,6.5-11.415,11.8-11.415A10.229,10.229,0,0,1,55.6,34.3a.927.927,0,1,1-1.237,1.38,8.414,8.414,0,0,0-5.621-2.313c-4.442,0-8.464,4.028-10.007,10.024-.076.295-.164.736-.274,1.284-.55,2.73-1.572,7.813-4.038,11.146A.924.924,0,0,1,33.676,56.2Z" transform="translate(-32.75 -31.512)"/></g><g transform="translate(0.957 34.765)"><path class="b" d="M31.7,64.609a14.939,14.939,0,0,1-9.859-3.94.927.927,0,0,1,1.213-1.4c7.493,6.472,14.957,2.454,17.858-.574a18.712,18.712,0,0,0,4.426-9.014c.032-1.782,1.155-3.166,2.582-3.166,1.449,0,2.583,1.426,2.583,3.245a.953.953,0,0,1-.034.25c-.018.06-1.708,6.131-3,13.357a.927.927,0,1,1-1.825-.327c1.206-6.718,2.749-12.453,3.008-13.394-.038-.771-.45-1.275-.726-1.275-.3,0-.729.541-.729,1.391a.842.842,0,0,1-.01.136,20.4,20.4,0,0,1-4.93,10.08A14.805,14.805,0,0,1,31.7,64.609Z" transform="translate(-21.525 -46.511)"/></g><g transform="translate(23.545 55.224)"><path class="a" d="M48.807,89.354a.928.928,0,0,1-.749-.379c-2.3-3.144-2.774-9.737-1.4-19.6a.927.927,0,1,1,1.836.257c-1.289,9.232-.922,15.542,1.058,18.244a.926.926,0,0,1-.2,1.3A.909.909,0,0,1,48.807,89.354Z" transform="translate(-45.89 -68.579)"/></g><g transform="translate(33.765 40.329)"><path class="a" d="M56.913,52.512" transform="translate(-56.913 -52.512)"/></g><g transform="translate(0.416 27.812)"><path class="a" d="M51.127,86.262a.929.929,0,0,1-.778-.42c-4.155-6.369.108-32.012,3.37-37.129a3.676,3.676,0,0,0,0-3.977,7.727,7.727,0,0,0-5.834-3.869c-3.139,0-5.692,3.744-5.692,8.344a10.863,10.863,0,0,1-21.2,3.324.927.927,0,1,1,1.765-.567,9.009,9.009,0,0,0,17.583-2.757c0-5.623,3.386-10.2,7.547-10.2,2.652,0,6,2.167,7.46,4.83a5.548,5.548,0,0,1-.058,5.865c-3.32,5.208-6.815,29.856-3.38,35.12a.929.929,0,0,1-.776,1.436Z" transform="translate(-20.942 -39.011)"/></g><g transform="translate(43.948 9.267)"><path class="a" d="M77.733,46.206a.927.927,0,0,1-.925-.884c-.451-9.618-3.543-18.426-8.705-24.8a.927.927,0,0,1,1.441-1.166c5.409,6.683,8.645,15.876,9.116,25.884a.928.928,0,0,1-.883.97Z" transform="translate(-67.896 -19.008)"/></g><g transform="translate(12.606)"><path class="a" d="M62.665,16.312a.921.921,0,0,1-.6-.223A20.259,20.259,0,0,0,48.84,10.866a20.26,20.26,0,0,0-13.219,5.219.927.927,0,0,1-1.208-1.406A22.08,22.08,0,0,1,48.84,9.012a22.081,22.081,0,0,1,14.428,5.669.928.928,0,0,1-.6,1.631Z" transform="translate(-34.09 -9.012)"/></g><g transform="translate(0 9.269)"><path class="a" d="M21.421,46.206h-.045a.927.927,0,0,1-.883-.97c.47-10.008,3.707-19.2,9.115-25.882A.927.927,0,0,1,31.05,20.52c-5.161,6.378-8.252,15.186-8.7,24.8A.927.927,0,0,1,21.421,46.206Z" transform="translate(-20.493 -19.01)"/></g><g transform="translate(2.666 52.485)"><path class="a" d="M42.047,88.2a.926.926,0,0,1-.746-.375c-1.8-2.434-1.043-7.9-.31-13.192.374-2.7.885-6.391.438-7.044-.412-.322-1.405.045-2.988.674a26.473,26.473,0,0,1-5.073,1.581,14.375,14.375,0,0,1-9.508-1.473.928.928,0,0,1,.872-1.637,12.564,12.564,0,0,0,8.294,1.289,24.89,24.89,0,0,0,4.732-1.483c1.987-.789,3.555-1.41,4.868-.361,1.215.973.923,3.514.2,8.71-.586,4.224-1.388,10.009-.037,11.834a.927.927,0,0,1-.744,1.478Z" transform="translate(-23.368 -65.624)"/></g><g transform="translate(4.608 57.715)"><path class="a" d="M37.478,86.4a.928.928,0,0,1-.877-.626c-.99-2.878-.15-6.908.464-9.85.187-.9.408-1.959.477-2.618a39.755,39.755,0,0,1-11.352.188.927.927,0,0,1,.4-1.811c2.067.458,9.324.362,10.831-.274a1.351,1.351,0,0,1,1.459.137c.844.694.561,2.052,0,4.756-.569,2.731-1.349,6.472-.524,8.869a.929.929,0,0,1-.877,1.229Z" transform="translate(-25.463 -71.265)"/></g><g transform="translate(7.226 61.356)"><path class="a" d="M32.8,82.735a.927.927,0,0,1-.653-1.585c1.492-1.48,2.038-3.371,1.664-3.874-.32-.435-2.05-.295-4.137.916a.927.927,0,1,1-.931-1.6c2.214-1.285,5.259-2.163,6.557-.417,1.193,1.61,0,4.465-1.849,6.3A.925.925,0,0,1,32.8,82.735Z" transform="translate(-28.287 -75.193)"/></g><g transform="translate(32.37 37.541)"><path class="a" d="M57.26,86.723a.926.926,0,0,1-.915-.788C55.493,80.353,54,66.223,58.5,55.636A9.457,9.457,0,0,1,63.921,50.1c3.423-1.255,7.89-.521,13.284,2.184a.927.927,0,1,1-.832,1.657c-3.382-1.695-8.175-3.435-11.814-2.1a7.683,7.683,0,0,0-4.351,4.522c-4.317,10.15-2.858,23.867-2.03,29.295a.926.926,0,0,1-.777,1.056A.91.91,0,0,1,57.26,86.723Z" transform="translate(-55.408 -49.505)"/></g><g transform="translate(36.132 42.255)"><path class="a" d="M61.328,85.24a.927.927,0,0,1-.911-.765c-.631-3.563-2.39-15.893,1.479-24.99a7.547,7.547,0,0,1,4.374-4.434c2.791-1,6.422-.366,10.8,1.9a.928.928,0,1,1-.851,1.648c-2.683-1.386-6.479-2.824-9.318-1.8a5.7,5.7,0,0,0-3.3,3.417c-3.668,8.627-1.967,20.5-1.359,23.94a.927.927,0,0,1-.751,1.075A.973.973,0,0,1,61.328,85.24Z" transform="translate(-59.467 -54.589)"/></g><g transform="translate(40.37 46.814)"><path class="a" d="M64.965,68.77a.875.875,0,0,1-.146-.012.927.927,0,0,1-.77-1.062,19.8,19.8,0,0,1,1.276-4.62,5.5,5.5,0,0,1,3.236-3.245c2.075-.731,4.763-.223,7.987,1.5a.927.927,0,0,1-.876,1.634c-1.888-1.012-4.551-2.073-6.5-1.391A3.683,3.683,0,0,0,67.031,63.8a17.912,17.912,0,0,0-1.151,4.186A.929.929,0,0,1,64.965,68.77Z" transform="translate(-64.037 -59.507)"/></g><g transform="translate(40 58.408)"><path class="a" d="M65.444,83.626a.928.928,0,0,1-.906-.732,47.946,47.946,0,0,1-.891-9.973.928.928,0,0,1,.927-.908h.019a.928.928,0,0,1,.908.947,46.861,46.861,0,0,0,.849,9.544.928.928,0,0,1-.712,1.1A.877.877,0,0,1,65.444,83.626Z" transform="translate(-63.638 -72.013)"/></g><g transform="translate(43.663 50.784)"><path class="a" d="M69.107,79.373a.924.924,0,0,1-.91-.761c-.06-.332-1.46-8.186.206-12.516a3.339,3.339,0,0,1,2.145-2.168c1.779-.532,3.857.58,5.293,1.607a.928.928,0,1,1-1.08,1.508c-1.507-1.077-2.878-1.58-3.681-1.339-.151.045-.612.183-.948,1.059C68.652,70.606,70,78.2,70.02,78.281a.927.927,0,0,1-.913,1.092Z" transform="translate(-67.589 -63.79)"/></g><g transform="translate(46.731 54.939)"><path class="a" d="M72.355,75.4a.929.929,0,0,1-.852-.56c-.869-2.017-.79-4.81.168-5.975a1.447,1.447,0,0,1,1.451-.557,3.355,3.355,0,0,1,2.235,1.474.927.927,0,1,1-1.514,1.071,1.5,1.5,0,0,0-.833-.662,5.641,5.641,0,0,0,.2,3.917.928.928,0,0,1-.485,1.218A.952.952,0,0,1,72.355,75.4Z" transform="translate(-70.898 -68.27)"/></g></svg>