<svg xmlns="http://www.w3.org/2000/svg" width="79.193" height="76" viewBox="0 0 79.193 76"><defs><style>.a{fill:#ff7838;}.b{fill:#343434;}</style></defs><g transform="translate(-1310.302 -3896)"><g transform="translate(1334.952 3914.837)"><path class="a" d="M176.894,156.4H171.6l-1.395-8.032a7.377,7.377,0,0,0,3.041-5.965,7.252,7.252,0,0,0-6.083-7.175V127.2h-2.436v8.032a7.318,7.318,0,0,0-6.083,7.175,7.449,7.449,0,0,0,3.041,5.965l-1.395,8.032H155v2.436h4.873l-3.041,16.853,2.369.42,3.109-17.273H169.6l3.109,17.273,2.369-.42-3.041-16.853h4.873V156.4Zm-8.654-9.729-.79.42,1.7,9.309H162.7l1.647-9.309-.723-.42a4.882,4.882,0,1,1,4.621,0Z" transform="translate(-155 -127.2)"/><path class="a" d="M332.3,127.2v41.067l3.646,7.292,3.646-7.292V127.2Zm4.873,40.462-1.21,2.436-1.21-2.436v-28.9h2.436v28.9Zm0-31.321h-2.436v-6.688h2.436Z" transform="translate(-302.508 -127.2)"/></g><path class="b" d="M19.155,15.1A10.85,10.85,0,0,0,8.3,25.955V80.245A10.85,10.85,0,0,0,19.155,91.1H87.493V24.678H20.432V15.1Zm-1.277,2.688V69.458a10.862,10.862,0,0,0-7.024,3.764V25.955A8.243,8.243,0,0,1,17.878,17.788Zm2.554,9.46H84.939V88.563H19.155a8.3,8.3,0,0,1,0-16.6h1.277Z" transform="translate(1302.002 3880.9)"/></g></svg>