<svg xmlns="http://www.w3.org/2000/svg" width="55.593" height="76" viewBox="0 0 55.593 76"><defs><style>.a{fill:#343434;}.b{fill:none;stroke:#ff7838;stroke-linecap:round;stroke-linejoin:round;stroke-width:2px;}</style></defs><g transform="translate(0 0)"><path class="a" d="M52.817,17.308h-4.7a2.778,2.778,0,0,0-2.775,2.775v1.693a2.778,2.778,0,0,0,2.775,2.775h1.239V34.726A3.734,3.734,0,0,1,47.794,37.8a3.376,3.376,0,0,0-3.15-2.616V23.2a1.113,1.113,0,1,0-2.227,0V35.18H13.489V7.29a5.069,5.069,0,0,1,5.063-5.064H25.2A1.113,1.113,0,0,0,25.2,0H18.553a7.3,7.3,0,0,0-7.29,7.29V35.184a3.375,3.375,0,0,0-3.189,2.809A3.8,3.8,0,0,1,6.24,34.726V24.551H7.478a2.778,2.778,0,0,0,2.775-2.775V20.083a2.779,2.779,0,0,0-2.775-2.775h-4.7A2.778,2.778,0,0,0,0,20.083v1.693a2.778,2.778,0,0,0,2.775,2.775H4.013V34.726a6.26,6.26,0,0,0,4.013,5.756,3.379,3.379,0,0,0,3.371,3.51h7.967c.633,2.294,2.148,3.826,3.888,3.826h1.009v6.728a2.318,2.318,0,0,0,.5,1.444v5.2a2.78,2.78,0,0,0-1.94,2.646v1.286l-6.707,1.923a4.319,4.319,0,0,0-2.493,1.88,3.554,3.554,0,1,0,2.446.582,2.127,2.127,0,0,1,.661-.321l6.7-1.923A2.769,2.769,0,0,0,25.6,68.3h4.7a2.77,2.77,0,0,0,2.164-1.042l6.7,1.923a2.133,2.133,0,0,1,.661.321,3.553,3.553,0,1,0,2.446-.582,4.323,4.323,0,0,0-2.493-1.88L33.08,65.121V63.835a2.779,2.779,0,0,0-1.94-2.646v-5.2a2.319,2.319,0,0,0,.5-1.444V47.817h1.008c1.741,0,3.256-1.532,3.888-3.826h7.967a3.375,3.375,0,0,0,3.371-3.371v-.278a6.208,6.208,0,0,0,3.7-5.617V24.551h1.239a2.778,2.778,0,0,0,2.775-2.775V20.083a2.779,2.779,0,0,0-2.776-2.775ZM2.775,22.325a.549.549,0,0,1-.549-.549V20.083a.55.55,0,0,1,.549-.549h4.7a.549.549,0,0,1,.548.549v1.693a.549.549,0,0,1-.548.549ZM14.081,73.774a1.326,1.326,0,1,1,1.326-1.327A1.328,1.328,0,0,1,14.081,73.774Zm27.744-2.653A1.326,1.326,0,1,1,40.5,72.447,1.328,1.328,0,0,1,41.825,71.121ZM30.853,65.528a.55.55,0,0,1-.549.549H25.6a.55.55,0,0,1-.549-.549V63.835a.549.549,0,0,1,.549-.549h4.7a.549.549,0,0,1,.549.549ZM26.594,54.65a.1.1,0,0,1-.032-.006.1.1,0,0,1-.023-.012.1.1,0,0,1-.05-.088V47.817h2.929v6.727a.1.1,0,0,1-.05.088.12.12,0,0,1-.023.012.1.1,0,0,1-.032.006Zm2.319,2.227V61.06h-1.92V56.877Zm3.74-11.286h-9.4c-.518,0-1.14-.579-1.547-1.6H34.2C33.793,45.012,33.171,45.59,32.653,45.59Zm13-4.969a1.146,1.146,0,0,1-1.145,1.144H11.4a1.145,1.145,0,0,1-1.144-1.144V38.552A1.145,1.145,0,0,1,11.4,37.408H44.508a1.146,1.146,0,0,1,1.145,1.144Zm7.713-18.845a.549.549,0,0,1-.549.549h-4.7a.549.549,0,0,1-.549-.549V20.083a.549.549,0,0,1,.549-.549h4.7a.549.549,0,0,1,.549.549Zm0,0" transform="translate(0 0)"/><path class="a" d="M211.511,19.115A1.113,1.113,0,0,0,212.625,18V7.29A7.3,7.3,0,0,0,205.334,0h-6.959a1.113,1.113,0,1,0,0,2.227h6.959A5.07,5.07,0,0,1,210.4,7.29V18a1.113,1.113,0,0,0,1.113,1.114Zm0,0" transform="translate(-167.981 0)"/><path class="b" d="M-1103.257-4724.436l4.226,4.226,11.064-11.064" transform="translate(1124.774 4745.375)"/></g></svg>