<svg xmlns="http://www.w3.org/2000/svg" width="72.574" height="76" viewBox="0 0 72.574 76"><defs><style>.a{fill:#ff7838;}.b{fill:#343434;}</style></defs><g transform="translate(-1292 4794)"><g transform="translate(1336.924 -4755.591)"><path class="a" d="M329.086,267.1l-18.391,18.391a1.254,1.254,0,0,0,.876,2.138h18.005a1.622,1.622,0,0,0,1.618-1.618v-18.02A1.233,1.233,0,0,0,329.086,267.1Zm-.1,18.288H313.945l15.037-15.037Z" transform="translate(-310.327 -266.73)"/></g><g transform="translate(1306.547 -4789.25)"><path class="a" d="M143.21,67.529,161.1,49.642a4.4,4.4,0,0,0,0-6.2l-2.182-2.182a4.4,4.4,0,0,0-6.2,0l-9.485,9.485L141,52.967,110.42,83.545a1.4,1.4,0,0,0-.238.341c-.416.935-3.889,8.877-4.29,9.8a2.057,2.057,0,0,0,2.776,2.776l9.8-4.29a1.017,1.017,0,0,0,.341-.238L141,69.74m2.212,31.528h18.243a2.255,2.255,0,0,0,2.256-2.256V58.7a1.4,1.4,0,0,0-.876-1.306,1.39,1.39,0,0,0-1.544.312h0l-17,16.981-4.616,4.631L120.128,98.864a1.419,1.419,0,0,0,.995,2.42h19.846m13.3-58.455a2.159,2.159,0,0,1,3.058,0l2.182,2.182a2.159,2.159,0,0,1,0,3.058l-1.752,1.752L152.5,44.565Zm-3.325,3.325,5.255,5.255-2.6,2.6-5.255-5.255ZM108.03,94.307l1.573-3.577,2.019,2.019Zm5.774-2.523-3.251-3.251.995-2.256,4.513,4.512Zm4.2-2.2-1.841-1.841,15.972-15.972a1.113,1.113,0,0,0-1.573-1.573L114.591,86.172l-1.841-1.841,34.007-34.007,1.841,1.841L134.244,66.519a1.113,1.113,0,1,0,1.573,1.573l14.354-14.354,1.841,1.841ZM161.482,69.5h-1.128a1.113,1.113,0,0,0,0,2.227h1.128v5.463h-1.128a1.113,1.113,0,0,0,0,2.227h1.128v5.462h-1.128a1.113,1.113,0,0,0,0,2.227h1.128V92.57h-1.128a1.113,1.113,0,0,0,0,2.227h1.128V99a.032.032,0,0,1-.03.03H123.1l38.4-38.4V69.5Z" transform="translate(-105.682 -39.975)"/></g><line x1="2.227" y2="2.227" transform="translate(1341.848 -4761.696)"/><path d="M334.7,392.4" transform="translate(1004.696 -5128.153)"/><path class="b" d="M66.329,16.7V3.251A3.25,3.25,0,0,0,63.078,0H47.448a1.121,1.121,0,0,0-1.113,1.113,1.121,1.121,0,0,0,1.113,1.113H63.063a1.026,1.026,0,0,1,1.024,1.024V18.926m2.241,22.815V33.487L64.1,35.714v8.253ZM64.1,66.04v6.605a1.128,1.128,0,0,1-1.128,1.128H18.7A1.064,1.064,0,0,1,17.627,72.7V19.015H31.164a3.25,3.25,0,0,0,3.251-3.251V2.227h7.838a1.113,1.113,0,0,0,0-2.227H33.3a1.139,1.139,0,0,0-.787.327L15.727,17.115a1.139,1.139,0,0,0-.327.787V72.7A3.3,3.3,0,0,0,18.7,76H62.974a3.361,3.361,0,0,0,3.355-3.355V66.04M32.2,3.8V15.764a1.026,1.026,0,0,1-1.024,1.024H19.2Z" transform="translate(1276.6 -4794)"/></g></svg>