<svg xmlns="http://www.w3.org/2000/svg" width="109.217" height="68.103" viewBox="0 0 109.217 68.103"><defs><style>.a{fill:#ff7838;}.b{fill:#343434;}</style></defs><g transform="translate(0 -96.4)"><line y1="0.832" x2="3.2" transform="translate(6.422 126.995)"/><path class="a" d="M234.879,270.1l-3.179.213Z" transform="translate(-182.265 -136.64)"/><path class="a" d="M380.59,269.5h0Z" transform="translate(-296.25 -136.168)"/><line class="a" x2="4.011" transform="translate(94.239 133.332)"/><line x2="3.243" transform="translate(49.52 133.46)"/><line x1="3.99" transform="translate(80.499 133.46)"/><path class="a" d="M357.8,264" transform="translate(-281.461 -131.842)"/><g transform="translate(0 96.4)"><path class="b" d="M33.3,107.409A7.813,7.813,0,0,1,41.109,99.6H53.1a1.6,1.6,0,0,0,0-3.2H41.109A11.022,11.022,0,0,0,30.1,107.409v20.546l3.2-.96Z" transform="translate(-23.678 -96.4)"/><path class="b" d="M187.6,334.1a1.612,1.612,0,0,0,1.6,1.6h18.861l1.152-3.2H189.179A1.58,1.58,0,0,0,187.6,334.1Z" transform="translate(-147.574 -282.127)"/><path class="b" d="M232.3,133.438V107.409A11.022,11.022,0,0,0,221.289,96.4H166.2a1.6,1.6,0,0,0,0,3.2h55.089a7.813,7.813,0,0,1,7.809,7.809v26.008H206.162l-1.152,3.2h26.84a3.66,3.66,0,0,1,3.648,3.648V143.1a3.66,3.66,0,0,1-3.648,3.648H213.971a1.6,1.6,0,1,0,0,3.2h6.742V152.6a5.078,5.078,0,0,0,10.156,0v-2.646h.981A6.856,6.856,0,0,0,238.7,143.1v-2.838A6.825,6.825,0,0,0,232.3,133.438Zm-4.608,19.181a1.878,1.878,0,0,1-3.755,0v-2.646h3.755Z" transform="translate(-129.482 -96.4)"/><path class="b" d="M337.907,332.5h-5.355l-1.152,3.2h6.507a1.612,1.612,0,0,0,1.6-1.6A1.585,1.585,0,0,0,337.907,332.5Z" transform="translate(-260.694 -282.127)"/><path class="b" d="M4.011,270.519A6.869,6.869,0,0,0,0,276.749v2.838a6.856,6.856,0,0,0,6.849,6.849H7.83v2.646a5.078,5.078,0,1,0,10.156,0v-2.646H34.329a1.6,1.6,0,1,0,0-3.2H6.849A3.66,3.66,0,0,1,3.2,279.586v-2.838A3.661,3.661,0,0,1,6.849,273.1h58.46l1.152-3.2H5.611Zm7.019,15.938h3.755V289.1a1.878,1.878,0,0,1-3.755,0v-2.646Z" transform="translate(0 -232.883)"/></g><path class="a" d="M108.186,178.551H112.2a5.789,5.789,0,0,0-3.734-7.851,10.3,10.3,0,0,0,2.262-6.486,10.433,10.433,0,1,0-20.866,0,3.778,3.778,0,0,0,.021.491,15.091,15.091,0,0,0-4.694-.363l-3.819.3a2.972,2.972,0,0,0-3.264-2.432l-7.211.875a2.947,2.947,0,0,0-2.582,2.6l-2.923.235a3.8,3.8,0,0,0-2.582,1.344l-8.129-6.635a9.161,9.161,0,0,0-12.631,1L32.765,171.98a.383.383,0,0,0-.107.149h-9.11a9.431,9.431,0,0,0-3.2.96,5.721,5.721,0,0,0-2.56,4.758,11.951,11.951,0,0,0,.043,1.387,9.14,9.14,0,0,1,3.2-.683m59.377,0-1.152,3.2-3.67,10.156-1.152,3.2-.789,2.2a4.6,4.6,0,0,0-.277,1.771,5.531,5.531,0,0,0-.811,1.024l-2.176,3.755a3.685,3.685,0,0,0,2.816,5.5l2.582.256a2.07,2.07,0,0,0,.363.021,3.7,3.7,0,0,0,3.179-1.835l1.643-2.838a4.868,4.868,0,0,0,.64-2.688,4.907,4.907,0,0,0,1.067-1.707l1.984-5.483,1.152-3.2,3.67-10.156,1.152-3.2m18.818-2.24a2.641,2.641,0,0,1-1.131,2.155.564.564,0,0,0-.128.107H98.265a.926.926,0,0,0-.149-.128,2.669,2.669,0,0,1-1.109-2.134,2.7,2.7,0,0,1,.832-1.92,10.466,10.466,0,0,0,7.083-.832,1.53,1.53,0,0,0,.619.128h1.237A2.619,2.619,0,0,1,109.445,176.289Zm-4.054-17.2a7.233,7.233,0,0,1,.96,9.025c-5.867-3.99-7.233-8.684-7.51-11.009a7.921,7.921,0,0,1,1.43-.149A7.333,7.333,0,0,1,105.391,159.093Zm-10.241,0c.213-.213.448-.405.683-.6.576,2.966,2.432,7.766,8.193,11.884a7.228,7.228,0,0,1-10.988-6.187A7.166,7.166,0,0,1,95.15,159.093Zm-16.94,6.315.043.277a2.1,2.1,0,0,1-1.835,2.347l-2.539.3a2.1,2.1,0,0,1-2.347-1.835l-.043-.277ZM21.03,178.551a2.5,2.5,0,0,1-.043-.7,2.531,2.531,0,0,1,2.539-2.539H62.763l.533,3.222Zm25.9-6.443L49,169.782l2.838,2.326Zm-2.539-8.364a5.939,5.939,0,0,1,8.214-.64l9.43,7.681h0l.213,1.323H56.832a1.706,1.706,0,0,0-.277-.277l-6.635-5.419a1.674,1.674,0,0,0-2.326.192l-4.8,5.377a.383.383,0,0,0-.107.149H36.947Zm33.774,39.62L76.524,206.2a.446.446,0,0,1-.448.235l-2.582-.256a.453.453,0,0,1-.363-.256.424.424,0,0,1,.021-.448l2.176-3.755a1.585,1.585,0,0,1,1-.768,1.479,1.479,0,0,1,.427-.064,1.926,1.926,0,0,1,.832.213A1.655,1.655,0,0,1,78.167,203.364Zm12.225-28.846a1.6,1.6,0,0,0-2.048.96l-8.47,23.362a4.248,4.248,0,0,0-.7-.512,4.776,4.776,0,0,0-2.283-.64l8.428-23.3a1.6,1.6,0,0,0-3.008-1.088l-1.9,5.249H66.539l-1.429-8.833a.445.445,0,0,1,.107-.405.5.5,0,0,1,.384-.192l3.371-.277a5.339,5.339,0,0,0,4.63,2.731c.213,0,3.179-.341,3.179-.341a5.284,5.284,0,0,0,4.31-3.35l4.31-.341a11.414,11.414,0,0,1,5.27.811,9.963,9.963,0,0,0,2.219,3.264,9.76,9.76,0,0,0,1.9,1.493,5.76,5.76,0,0,0-.491,5.462H90.648l.256-.683.469-1.3A1.643,1.643,0,0,0,90.392,174.518Z" transform="translate(-13.99 -45.134)"/></g></svg>