<svg xmlns="http://www.w3.org/2000/svg" width="63.755" height="49.778" viewBox="0 0 63.755 49.778">
  <path id="Path_19" data-name="Path 19" d="M7.185-36.1c11.1-4.786,25.655-22.017,25.655-36.185A13.521,13.521,0,0,0,19.246-85.88,13.037,13.037,0,0,0,6.036-73.052c0,6.7,4.4,9.956,4.4,16.082,0,3.829-1.34,9.19-7.275,15.891C3.164-38.016,5.079-36.1,7.185-36.1Zm34.079,0c11.1-4.786,25.655-22.017,25.655-36.185A13.521,13.521,0,0,0,53.325-85.88a13.037,13.037,0,0,0-13.21,12.828c0,6.7,4.4,9.956,4.4,16.082,0,3.829-1.34,9.19-7.275,15.891C37.243-38.016,39.158-36.1,41.264-36.1Z" transform="translate(66.919 -36.102) rotate(180)" fill="#ff7838" opacity="0.7"/>
</svg>
