<svg xmlns="http://www.w3.org/2000/svg" width="625.662" height="170.199" viewBox="0 0 625.662 170.199">
  <g id="Group_149" data-name="Group 149" transform="translate(-333.252 -1041.039)">
    <path id="Path_186" data-name="Path 186" d="M21.016-3.708h3.961V18.252H39.64V-15.1H8.369C7.744-3.43,7.674,5.674,3.157,6.508A6.908,6.908,0,0,1,.308,6.3V18.113a22.707,22.707,0,0,0,6.741,1.042C16.569,19.155,19.7,10.677,21.016-3.708ZM78.9,7.689V-.025c0-12.925-7.366-16.191-18.832-16.191a52.624,52.624,0,0,0-13.69,2.224v10.98A35.24,35.24,0,0,1,58.4-5.375c4.586,0,6.6,1.32,6.6,3.683v.764a35.95,35.95,0,0,0-6.6-.625C51.523-1.553,43.74.809,43.74,9.287c0,6.671,5.351,10.076,11.605,10.076a16.8,16.8,0,0,0,11.119-3.753c1.737,2.432,4.725,3.544,8.339,3.544A21.789,21.789,0,0,0,82.168,17.9V9.357a8.514,8.514,0,0,1-1.32.139C79.736,9.5,78.9,9.009,78.9,7.689ZM62.086,5.118A8.942,8.942,0,0,1,65,5.535v4.1a6.815,6.815,0,0,1-3.822,1.112c-1.807,0-3.266-.973-3.266-2.641C57.916,5.882,60.07,5.118,62.086,5.118ZM122.265,3.8c0-10.285-6.115-15.219-13.342-15.219a12.586,12.586,0,0,0-9.59,3.961,8.266,8.266,0,0,1,5-7.019c4.934-2.085,10.632-.625,14.663-4.169V-31.5c-4.308,4.03-14.246,1.459-23.835,7.505-5.976,3.753-10.215,9.937-10.215,22.446,0,16.33,9.451,20.917,19.18,20.917C113.717,19.363,122.265,14.5,122.265,3.8Zm-23-.625c0-2.154.834-4.864,4.378-4.864,3.475,0,4.308,2.71,4.308,4.864s-.834,4.934-4.308,4.934C100.1,8.106,99.263,5.326,99.263,3.172Zm26.059-1.6c0,12.022,8.756,17.79,19.18,17.79s19.249-5.768,19.249-17.79-8.825-17.79-19.249-17.79S125.322-10.448,125.322,1.574Zm24.113,0c0,3.127-1.251,5.7-4.934,5.7-3.614,0-4.864-2.571-4.864-5.7s1.251-5.7,4.864-5.7C148.185-4.125,149.436-1.553,149.436,1.574Zm31.479-12.647V-15.1H168.059V33.54h14.663v-17.3a13.381,13.381,0,0,0,9.1,3.127c10.632,0,15.288-8.617,15.288-17.79s-4.656-17.79-15.288-17.79A13.721,13.721,0,0,0,180.915-11.074ZM192.034,1.574c0,2.988-1.529,6.046-5.073,6.046a5,5,0,0,1-4.308-2.363V-2.109a5.1,5.1,0,0,1,4.308-2.363C190.5-4.472,192.034-1.414,192.034,1.574Zm53.022,6.115V-.025c0-12.925-7.366-16.191-18.832-16.191a52.624,52.624,0,0,0-13.69,2.224v10.98a35.24,35.24,0,0,1,12.022-2.363c4.586,0,6.6,1.32,6.6,3.683v.764a35.95,35.95,0,0,0-6.6-.625c-6.88,0-14.663,2.363-14.663,10.841,0,6.671,5.351,10.076,11.6,10.076a16.8,16.8,0,0,0,11.119-3.753c1.737,2.432,4.725,3.544,8.339,3.544a21.789,21.789,0,0,0,7.366-1.251V9.357A8.514,8.514,0,0,1,247,9.5C245.889,9.5,245.055,9.009,245.055,7.689ZM228.239,5.118a8.942,8.942,0,0,1,2.919.417v4.1a6.815,6.815,0,0,1-3.822,1.112c-1.807,0-3.266-.973-3.266-2.641C224.069,5.882,226.223,5.118,228.239,5.118ZM272.3,18.252V-3.43h8.617V-15.1H249.086V-3.43H257.7V18.252ZM282.858,1.574c0,12.022,8.756,17.79,19.179,17.79s19.249-5.768,19.249-17.79-8.825-17.79-19.249-17.79S282.858-10.448,282.858,1.574Zm24.113,0c0,3.127-1.251,5.7-4.934,5.7-3.614,0-4.864-2.571-4.864-5.7s1.251-5.7,4.864-5.7C305.721-4.125,306.972-1.553,306.972,1.574Zm31.479-12.647V-15.1H325.6V33.54h14.663v-17.3a13.381,13.381,0,0,0,9.1,3.127c10.632,0,15.288-8.617,15.288-17.79s-4.656-17.79-15.288-17.79A13.721,13.721,0,0,0,338.451-11.074ZM349.57,1.574c0,2.988-1.529,6.046-5.073,6.046a5,5,0,0,1-4.308-2.363V-2.109A5.1,5.1,0,0,1,344.5-4.472C348.041-4.472,349.57-1.414,349.57,1.574Zm30.923,16.678L391.612,4.77V18.252h13.759V-15.1H393.9L382.786-1.623V-15.1H369.027V18.252Zm43.571,0L429.9,9.5h2.015v8.756h13.759V-15.1H424.968c-10.215,0-14.524,6.254-14.524,12.369A11.384,11.384,0,0,0,416.49,7.619l-7.714,10.632Zm.695-20.43c0-1.876,1.181-3.058,3.613-3.058h3.544V.809h-3.544C425.94.809,424.759-.3,424.759-2.179Z" transform="translate(513.238 1108.29)" fill="#fff"/>
    <path id="Path_187" data-name="Path 187" d="M16.512,11.806q-.327-.814-.982-2.251t-1.446-3.2q-.792-1.763-1.719-3.743T10.536-1.213q-.9-1.844-1.719-3.472T7.4-7.343Q6.693-1.1,6.368,4.51t-.542,11.2H2.516q.217-7,.732-14.1T4.577-12.334H8.212q.707,1.139,1.822,3.255t2.448,4.8q1.333,2.685,2.774,5.8t2.91,6.32q1.469-3.2,2.91-6.32t2.774-5.8q1.333-2.685,2.421-4.8a34.73,34.73,0,0,1,1.849-3.255H31.7Q32.515-5.5,33.03,1.607t.732,14.1H30.4q-.217-5.587-.542-11.2T28.826-7.343q-.6,1.085-1.41,2.685T25.707-1.213q-.9,1.844-1.817,3.824T22.181,6.354q-.787,1.763-1.438,3.2t-.976,2.251ZM92.783,1.662a17.8,17.8,0,0,1,1.058-6.428A14.16,14.16,0,0,1,96.607-9.35a10.891,10.891,0,0,1,3.906-2.739,11.9,11.9,0,0,1,4.53-.9,10.575,10.575,0,0,1,8.218,3.363q3.065,3.363,3.065,10.361,0,.434-.027.868t-.081.814H96.526q.163,5.153,2.55,7.92t7.595,2.767a15.346,15.346,0,0,0,4.557-.542,19.017,19.017,0,0,0,2.441-.922l.651,3.038a14.657,14.657,0,0,1-2.848,1.031,17.972,17.972,0,0,1-4.909.6,16.344,16.344,0,0,1-6.293-1.085,11.263,11.263,0,0,1-4.286-3.038,12.01,12.01,0,0,1-2.441-4.638A21.574,21.574,0,0,1,92.783,1.662ZM112.692-.562A11.139,11.139,0,0,0,110.63-7.4,6.679,6.679,0,0,0,105.1-9.839a7.368,7.368,0,0,0-3.39.759,8.611,8.611,0,0,0-2.6,2.034,9.449,9.449,0,0,0-1.736,2.956,12.127,12.127,0,0,0-.732,3.526Zm66.29-7.54a10.349,10.349,0,0,1,2.007-1.736,12.515,12.515,0,0,1,2.387-1.248,14.668,14.668,0,0,1,2.468-.732,11.54,11.54,0,0,1,2.251-.244,13.585,13.585,0,0,1,5.452,1,9.733,9.733,0,0,1,3.8,2.875,12.2,12.2,0,0,1,2.2,4.475,22.2,22.2,0,0,1,.705,5.8,21.64,21.64,0,0,1-.6,4.936,13.261,13.261,0,0,1-2.034,4.611,11.161,11.161,0,0,1-3.852,3.39,12.423,12.423,0,0,1-6.049,1.329,11.985,11.985,0,0,1-6.4-1.546,10.869,10.869,0,0,1-3.879-4.069,17.628,17.628,0,0,1-1.9-5.7,40.039,40.039,0,0,1-.515-6.428,64.437,64.437,0,0,1,.542-8.517,21.271,21.271,0,0,1,2.251-7.269,14.657,14.657,0,0,1,4.936-5.343A19.84,19.84,0,0,1,191.4-25.3q1.627-.163,2.712-.325l1.817-.271a10.321,10.321,0,0,0,1.221-.244q.488-.136.922-.244l.434,3.2a9.951,9.951,0,0,1-1.844.434q-1.3.217-4.34.542a22.3,22.3,0,0,0-5.642,1.329,11.047,11.047,0,0,0-3.987,2.631,11.689,11.689,0,0,0-2.5,4.177A24.587,24.587,0,0,0,178.981-8.1Zm-.217,3.96a12.8,12.8,0,0,0-.054,1.41v1.79a37.573,37.573,0,0,0,.353,5.153,14.282,14.282,0,0,0,1.356,4.53,8.487,8.487,0,0,0,2.767,3.2,7.788,7.788,0,0,0,4.53,1.221,8.4,8.4,0,0,0,4.041-.9,7.65,7.65,0,0,0,2.712-2.441,10.712,10.712,0,0,0,1.546-3.553,17.849,17.849,0,0,0,.488-4.231,21.7,21.7,0,0,0-.38-4.1,9.273,9.273,0,0,0-1.383-3.472,7.323,7.323,0,0,0-2.794-2.414,10.055,10.055,0,0,0-4.611-.922,8.953,8.953,0,0,0-2.631.407,11.232,11.232,0,0,0-2.468,1.085,12.65,12.65,0,0,0-2.061,1.519A7,7,0,0,0,178.764-4.143Zm79.526,5.8a17.8,17.8,0,0,1,1.058-6.428,14.159,14.159,0,0,1,2.767-4.584,10.89,10.89,0,0,1,3.906-2.739,11.9,11.9,0,0,1,4.53-.9,10.575,10.575,0,0,1,8.218,3.363q3.065,3.363,3.065,10.361,0,.434-.027.868t-.081.814H262.034q.163,5.153,2.55,7.92t7.595,2.767a15.346,15.346,0,0,0,4.557-.542,19.017,19.017,0,0,0,2.441-.922l.651,3.038a14.656,14.656,0,0,1-2.848,1.031,17.971,17.971,0,0,1-4.909.6,16.344,16.344,0,0,1-6.293-1.085,11.263,11.263,0,0,1-4.285-3.038,12.01,12.01,0,0,1-2.441-4.638A21.574,21.574,0,0,1,258.291,1.662ZM278.2-.562A11.139,11.139,0,0,0,276.138-7.4,6.679,6.679,0,0,0,270.6-9.839a7.368,7.368,0,0,0-3.39.759,8.611,8.611,0,0,0-2.6,2.034,9.45,9.45,0,0,0-1.736,2.956,12.127,12.127,0,0,0-.732,3.526ZM350.076-9.35v1.139q0,1.627-.054,3.553t-.217,3.933q-.163,2.007-.515,3.987a30.225,30.225,0,0,1-.9,3.716,19.668,19.668,0,0,1-1.492,3.39,12.791,12.791,0,0,1-2.116,2.821,10.516,10.516,0,0,1-2.821,2.007,10.729,10.729,0,0,1-3.607,1l-.488-2.929a8.742,8.742,0,0,0,4.367-2.224,12.234,12.234,0,0,0,2.739-4.611,25.9,25.9,0,0,0,1.383-6.862q.3-3.879.3-8.49v-3.418h17.251V15.712h-3.526V-9.35Zm94.336,1.519q-1.638,1.947-3.793,4.922t-4.341,6.291Q434.092,6.7,432.1,9.96t-3.47,5.751h-3.309V-12.334h3.472V10.124q1.305-2.33,3.231-5.4t4.095-6.185q2.169-3.12,4.366-6a61.44,61.44,0,0,1,4.094-4.883h3.309V15.712h-3.472Z" transform="translate(511.03 1186.628)" fill="#fff"/>
    <g id="flask" transform="translate(333.252 1041.039)">
      <path id="Path_1" data-name="Path 1" d="M82.331,166.306V137.491h2.422a3.438,3.438,0,0,0,3.34-3.617V117.537A3.369,3.369,0,0,0,84.753,114H38.808a3.465,3.465,0,0,0-3.459,3.537v16.337a3.536,3.536,0,0,0,3.459,3.617h.53v28.832a61.778,61.778,0,0,0-27.454,20.924A60.392,60.392,0,0,0,0,223.318a60.931,60.931,0,1,0,82.331-57.012Zm-39.89-45.214H81V130.4H42.441ZM61.011,277.108a53.914,53.914,0,0,1-53.918-53.79,53.343,53.343,0,0,1,10.5-31.864A54.481,54.481,0,0,1,44,172.188a3.547,3.547,0,0,0,2.427-3.366V137.491H75.24v31.331a3.547,3.547,0,0,0,2.446,3.373A53.786,53.786,0,0,1,61.012,277.108Zm0,0" transform="translate(0 -114)" fill="#fff"/>
      <path id="Path_5" data-name="Path 5" d="M108.122,310.815a25.819,25.819,0,0,0-19.17,6.879,23.856,23.856,0,0,0-7.687,17.433A24.828,24.828,0,0,0,93.892,356.28V366.5a7.934,7.934,0,0,0,8.075,7.756h9.173a7.882,7.882,0,0,0,8.016-7.756V356.226a24.6,24.6,0,0,0,12.656-21.187C131.767,322.233,121.327,311.592,108.122,310.815Zm3.018,56.345h-9.173c-.448,0-.983-.215-.983-.665v-4.654h11.081V366.5c0,.45-.474.665-.925.665Zm3.023-16.411a3.494,3.494,0,0,0-2.1,3.26v.741H100.984v-.66a3.469,3.469,0,0,0-2.027-3.243A17.359,17.359,0,0,1,88.4,335.126a16.774,16.774,0,0,1,5.4-12.274,18.665,18.665,0,0,1,12.779-4.992c.372,0,.75.012,1.124.033,9.32.549,16.959,8.252,16.991,17.172A17.055,17.055,0,0,1,114.163,350.748Zm0,0" transform="translate(-45.246 -223.554)" fill="#ff7838"/>
      <path id="Path_6" data-name="Path 6" d="M134.3,283.389a3.546,3.546,0,0,0,3.546-3.546V269.206a3.546,3.546,0,0,0-7.092,0v10.637A3.546,3.546,0,0,0,134.3,283.389Zm0,0" transform="translate(-72.8 -198.44)" fill="#ff7838"/>
      <path id="Path_7" data-name="Path 7" d="M198.664,358.546a3.545,3.545,0,0,0,3.546,3.546h11.07a3.546,3.546,0,1,0,0-7.092H202.21A3.545,3.545,0,0,0,198.664,358.546Zm0,0" transform="translate(-110.611 -248.182)" fill="#ff7838"/>
      <path id="Path_8" data-name="Path 8" d="M51.618,355H40.546a3.546,3.546,0,1,0,0,7.092H51.618a3.546,3.546,0,1,0,0-7.092Zm0,0" transform="translate(-20.601 -248.182)" fill="#ff7838"/>
      <path id="Path_9" data-name="Path 9" d="M182.025,306.541a3.53,3.53,0,0,0,2.441-.975l7.883-7.49a3.546,3.546,0,0,0-4.884-5.142l-7.883,7.49a3.546,3.546,0,0,0,2.443,6.117Zm0,0" transform="translate(-99.372 -213.083)" fill="#ff7838"/>
      <path id="Path_10" data-name="Path 10" d="M73.364,305.567a3.546,3.546,0,1,0,4.884-5.142l-7.883-7.49a3.546,3.546,0,0,0-4.884,5.142Zm0,0" transform="translate(-35.844 -213.083)" fill="#ff7838"/>
    </g>
  </g>
</svg>
