<svg xmlns="http://www.w3.org/2000/svg" width="170" height="170" viewBox="0 0 170 170">
  <g id="Group_149" data-name="Group 149" transform="translate(-333.252 -1041.039)">
    <g id="flask" transform="translate(333.252 1041.039)">
      <path id="Path_1" data-name="Path 1" d="M82.331,166.306V137.491h2.422a3.438,3.438,0,0,0,3.34-3.617V117.537A3.369,3.369,0,0,0,84.753,114H38.808a3.465,3.465,0,0,0-3.459,3.537v16.337a3.536,3.536,0,0,0,3.459,3.617h.53v28.832a61.778,61.778,0,0,0-27.454,20.924A60.392,60.392,0,0,0,0,223.318a60.931,60.931,0,1,0,82.331-57.012Zm-39.89-45.214H81V130.4H42.441ZM61.011,277.108a53.914,53.914,0,0,1-53.918-53.79,53.343,53.343,0,0,1,10.5-31.864A54.481,54.481,0,0,1,44,172.188a3.547,3.547,0,0,0,2.427-3.366V137.491H75.24v31.331a3.547,3.547,0,0,0,2.446,3.373A53.786,53.786,0,0,1,61.012,277.108Zm0,0" transform="translate(0 -114)" fill="#fff"/>
      <path id="Path_5" data-name="Path 5" d="M108.122,310.815a25.819,25.819,0,0,0-19.17,6.879,23.856,23.856,0,0,0-7.687,17.433A24.828,24.828,0,0,0,93.892,356.28V366.5a7.934,7.934,0,0,0,8.075,7.756h9.173a7.882,7.882,0,0,0,8.016-7.756V356.226a24.6,24.6,0,0,0,12.656-21.187C131.767,322.233,121.327,311.592,108.122,310.815Zm3.018,56.345h-9.173c-.448,0-.983-.215-.983-.665v-4.654h11.081V366.5c0,.45-.474.665-.925.665Zm3.023-16.411a3.494,3.494,0,0,0-2.1,3.26v.741H100.984v-.66a3.469,3.469,0,0,0-2.027-3.243A17.359,17.359,0,0,1,88.4,335.126a16.774,16.774,0,0,1,5.4-12.274,18.665,18.665,0,0,1,12.779-4.992c.372,0,.75.012,1.124.033,9.32.549,16.959,8.252,16.991,17.172A17.055,17.055,0,0,1,114.163,350.748Zm0,0" transform="translate(-45.246 -223.554)" fill="#ff7838"/>
      <path id="Path_6" data-name="Path 6" d="M134.3,283.389a3.546,3.546,0,0,0,3.546-3.546V269.206a3.546,3.546,0,0,0-7.092,0v10.637A3.546,3.546,0,0,0,134.3,283.389Zm0,0" transform="translate(-72.8 -198.44)" fill="#ff7838"/>
      <path id="Path_7" data-name="Path 7" d="M198.664,358.546a3.545,3.545,0,0,0,3.546,3.546h11.07a3.546,3.546,0,1,0,0-7.092H202.21A3.545,3.545,0,0,0,198.664,358.546Zm0,0" transform="translate(-110.611 -248.182)" fill="#ff7838"/>
      <path id="Path_8" data-name="Path 8" d="M51.618,355H40.546a3.546,3.546,0,1,0,0,7.092H51.618a3.546,3.546,0,1,0,0-7.092Zm0,0" transform="translate(-20.601 -248.182)" fill="#ff7838"/>
      <path id="Path_9" data-name="Path 9" d="M182.025,306.541a3.53,3.53,0,0,0,2.441-.975l7.883-7.49a3.546,3.546,0,0,0-4.884-5.142l-7.883,7.49a3.546,3.546,0,0,0,2.443,6.117Zm0,0" transform="translate(-99.372 -213.083)" fill="#ff7838"/>
      <path id="Path_10" data-name="Path 10" d="M73.364,305.567a3.546,3.546,0,1,0,4.884-5.142l-7.883-7.49a3.546,3.546,0,0,0-4.884,5.142Zm0,0" transform="translate(-35.844 -213.083)" fill="#ff7838"/>
    </g>
  </g>
</svg>
