<svg xmlns="http://www.w3.org/2000/svg" xmlns:xlink="http://www.w3.org/1999/xlink" width="455" height="290" viewBox="0 0 455 290"><defs><style>.a{fill:none;}.b{opacity:0.2;clip-path:url(#a);}.c{fill:#343434;}</style><clipPath id="a"><rect class="a" width="455" height="290"/></clipPath></defs><g class="b"><g transform="translate(-2645 -2884)"><circle class="c" cx="2.5" cy="2.5" r="2.5" transform="translate(2645 2884)"/></g><g transform="translate(-2630 -2884)"><circle class="c" cx="2.5" cy="2.5" r="2.5" transform="translate(2645 2884)"/></g><g transform="translate(-2615 -2884)"><circle class="c" cx="2.5" cy="2.5" r="2.5" transform="translate(2645 2884)"/></g><g transform="translate(-2600 -2884)"><circle class="c" cx="2.5" cy="2.5" r="2.5" transform="translate(2645 2884)"/></g><g transform="translate(-2585 -2884)"><circle class="c" cx="2.5" cy="2.5" r="2.5" transform="translate(2645 2884)"/></g><g transform="translate(-2570 -2884)"><circle class="c" cx="2.5" cy="2.5" r="2.5" transform="translate(2645 2884)"/></g><g transform="translate(-2555 -2884)"><circle class="c" cx="2.5" cy="2.5" r="2.5" transform="translate(2645 2884)"/></g><g transform="translate(-2540 -2884)"><circle class="c" cx="2.5" cy="2.5" r="2.5" transform="translate(2645 2884)"/></g><g transform="translate(-2525 -2884)"><circle class="c" cx="2.5" cy="2.5" r="2.5" transform="translate(2645 2884)"/></g><g transform="translate(-2510 -2884)"><circle class="c" cx="2.5" cy="2.5" r="2.5" transform="translate(2645 2884)"/></g><g transform="translate(-2495 -2884)"><circle class="c" cx="2.5" cy="2.5" r="2.5" transform="translate(2645 2884)"/></g><g transform="translate(-2480 -2884)"><circle class="c" cx="2.5" cy="2.5" r="2.5" transform="translate(2645 2884)"/></g><g transform="translate(-2465 -2884)"><circle class="c" cx="2.5" cy="2.5" r="2.5" transform="translate(2645 2884)"/></g><g transform="translate(-2450 -2884)"><circle class="c" cx="2.5" cy="2.5" r="2.5" transform="translate(2645 2884)"/></g><g transform="translate(-2435 -2884)"><circle class="c" cx="2.5" cy="2.5" r="2.5" transform="translate(2645 2884)"/></g><g transform="translate(-2420 -2884)"><circle class="c" cx="2.5" cy="2.5" r="2.5" transform="translate(2645 2884)"/></g><g transform="translate(-2405 -2884)"><circle class="c" cx="2.5" cy="2.5" r="2.5" transform="translate(2645 2884)"/></g><g transform="translate(-2390 -2884)"><circle class="c" cx="2.5" cy="2.5" r="2.5" transform="translate(2645 2884)"/></g><g transform="translate(-2375 -2884)"><circle class="c" cx="2.5" cy="2.5" r="2.5" transform="translate(2645 2884)"/></g><g transform="translate(-2360 -2884)"><circle class="c" cx="2.5" cy="2.5" r="2.5" transform="translate(2645 2884)"/></g><g transform="translate(-2345 -2884)"><circle class="c" cx="2.5" cy="2.5" r="2.5" transform="translate(2645 2884)"/></g><g transform="translate(-2330 -2884)"><circle class="c" cx="2.5" cy="2.5" r="2.5" transform="translate(2645 2884)"/></g><g transform="translate(-2315 -2884)"><circle class="c" cx="2.5" cy="2.5" r="2.5" transform="translate(2645 2884)"/></g><g transform="translate(-2300 -2884)"><circle class="c" cx="2.5" cy="2.5" r="2.5" transform="translate(2645 2884)"/></g><g transform="translate(-2285 -2884)"><circle class="c" cx="2.5" cy="2.5" r="2.5" transform="translate(2645 2884)"/></g><g transform="translate(-2270 -2884)"><circle class="c" cx="2.5" cy="2.5" r="2.5" transform="translate(2645 2884)"/></g><g transform="translate(-2255 -2884)"><circle class="c" cx="2.5" cy="2.5" r="2.5" transform="translate(2645 2884)"/></g><g transform="translate(-2240 -2884)"><circle class="c" cx="2.5" cy="2.5" r="2.5" transform="translate(2645 2884)"/></g><g transform="translate(-2225 -2884)"><circle class="c" cx="2.5" cy="2.5" r="2.5" transform="translate(2645 2884)"/></g><g transform="translate(-2210 -2884)"><circle class="c" cx="2.5" cy="2.5" r="2.5" transform="translate(2645 2884)"/></g><g transform="translate(-2195 -2884)"><circle class="c" cx="2.5" cy="2.5" r="2.5" transform="translate(2645 2884)"/></g><g transform="translate(-2645 -2869)"><circle class="c" cx="2.5" cy="2.5" r="2.5" transform="translate(2645 2884)"/></g><g transform="translate(-2630 -2869)"><circle class="c" cx="2.5" cy="2.5" r="2.5" transform="translate(2645 2884)"/></g><g transform="translate(-2615 -2869)"><circle class="c" cx="2.5" cy="2.5" r="2.5" transform="translate(2645 2884)"/></g><g transform="translate(-2600 -2869)"><circle class="c" cx="2.5" cy="2.5" r="2.5" transform="translate(2645 2884)"/></g><g transform="translate(-2585 -2869)"><circle class="c" cx="2.5" cy="2.5" r="2.5" transform="translate(2645 2884)"/></g><g transform="translate(-2570 -2869)"><circle class="c" cx="2.5" cy="2.5" r="2.5" transform="translate(2645 2884)"/></g><g transform="translate(-2555 -2869)"><circle class="c" cx="2.5" cy="2.5" r="2.5" transform="translate(2645 2884)"/></g><g transform="translate(-2540 -2869)"><circle class="c" cx="2.5" cy="2.5" r="2.5" transform="translate(2645 2884)"/></g><g transform="translate(-2525 -2869)"><circle class="c" cx="2.5" cy="2.5" r="2.5" transform="translate(2645 2884)"/></g><g transform="translate(-2510 -2869)"><circle class="c" cx="2.5" cy="2.5" r="2.5" transform="translate(2645 2884)"/></g><g transform="translate(-2495 -2869)"><circle class="c" cx="2.5" cy="2.5" r="2.5" transform="translate(2645 2884)"/></g><g transform="translate(-2480 -2869)"><circle class="c" cx="2.5" cy="2.5" r="2.5" transform="translate(2645 2884)"/></g><g transform="translate(-2465 -2869)"><circle class="c" cx="2.5" cy="2.5" r="2.5" transform="translate(2645 2884)"/></g><g transform="translate(-2450 -2869)"><circle class="c" cx="2.5" cy="2.5" r="2.5" transform="translate(2645 2884)"/></g><g transform="translate(-2435 -2869)"><circle class="c" cx="2.5" cy="2.5" r="2.5" transform="translate(2645 2884)"/></g><g transform="translate(-2420 -2869)"><circle class="c" cx="2.5" cy="2.5" r="2.5" transform="translate(2645 2884)"/></g><g transform="translate(-2405 -2869)"><circle class="c" cx="2.5" cy="2.5" r="2.5" transform="translate(2645 2884)"/></g><g transform="translate(-2390 -2869)"><circle class="c" cx="2.5" cy="2.5" r="2.5" transform="translate(2645 2884)"/></g><g transform="translate(-2375 -2869)"><circle class="c" cx="2.5" cy="2.5" r="2.5" transform="translate(2645 2884)"/></g><g transform="translate(-2360 -2869)"><circle class="c" cx="2.5" cy="2.5" r="2.5" transform="translate(2645 2884)"/></g><g transform="translate(-2345 -2869)"><circle class="c" cx="2.5" cy="2.5" r="2.5" transform="translate(2645 2884)"/></g><g transform="translate(-2330 -2869)"><circle class="c" cx="2.5" cy="2.5" r="2.5" transform="translate(2645 2884)"/></g><g transform="translate(-2315 -2869)"><circle class="c" cx="2.5" cy="2.5" r="2.5" transform="translate(2645 2884)"/></g><g transform="translate(-2300 -2869)"><circle class="c" cx="2.5" cy="2.5" r="2.5" transform="translate(2645 2884)"/></g><g transform="translate(-2285 -2869)"><circle class="c" cx="2.5" cy="2.5" r="2.5" transform="translate(2645 2884)"/></g><g transform="translate(-2270 -2869)"><circle class="c" cx="2.5" cy="2.5" r="2.5" transform="translate(2645 2884)"/></g><g transform="translate(-2255 -2869)"><circle class="c" cx="2.5" cy="2.5" r="2.5" transform="translate(2645 2884)"/></g><g transform="translate(-2240 -2869)"><circle class="c" cx="2.5" cy="2.5" r="2.5" transform="translate(2645 2884)"/></g><g transform="translate(-2225 -2869)"><circle class="c" cx="2.5" cy="2.5" r="2.5" transform="translate(2645 2884)"/></g><g transform="translate(-2210 -2869)"><circle class="c" cx="2.5" cy="2.5" r="2.5" transform="translate(2645 2884)"/></g><g transform="translate(-2195 -2869)"><circle class="c" cx="2.5" cy="2.5" r="2.5" transform="translate(2645 2884)"/></g><g transform="translate(-2645 -2854)"><circle class="c" cx="2.5" cy="2.5" r="2.5" transform="translate(2645 2884)"/></g><g transform="translate(-2630 -2854)"><circle class="c" cx="2.5" cy="2.5" r="2.5" transform="translate(2645 2884)"/></g><g transform="translate(-2615 -2854)"><circle class="c" cx="2.5" cy="2.5" r="2.5" transform="translate(2645 2884)"/></g><g transform="translate(-2600 -2854)"><circle class="c" cx="2.5" cy="2.5" r="2.5" transform="translate(2645 2884)"/></g><g transform="translate(-2585 -2854)"><circle class="c" cx="2.5" cy="2.5" r="2.5" transform="translate(2645 2884)"/></g><g transform="translate(-2570 -2854)"><circle class="c" cx="2.5" cy="2.5" r="2.5" transform="translate(2645 2884)"/></g><g transform="translate(-2555 -2854)"><circle class="c" cx="2.5" cy="2.5" r="2.5" transform="translate(2645 2884)"/></g><g transform="translate(-2540 -2854)"><circle class="c" cx="2.5" cy="2.5" r="2.5" transform="translate(2645 2884)"/></g><g transform="translate(-2525 -2854)"><circle class="c" cx="2.5" cy="2.5" r="2.5" transform="translate(2645 2884)"/></g><g transform="translate(-2510 -2854)"><circle class="c" cx="2.5" cy="2.5" r="2.5" transform="translate(2645 2884)"/></g><g transform="translate(-2495 -2854)"><circle class="c" cx="2.5" cy="2.5" r="2.5" transform="translate(2645 2884)"/></g><g transform="translate(-2480 -2854)"><circle class="c" cx="2.5" cy="2.5" r="2.5" transform="translate(2645 2884)"/></g><g transform="translate(-2465 -2854)"><circle class="c" cx="2.5" cy="2.5" r="2.5" transform="translate(2645 2884)"/></g><g transform="translate(-2450 -2854)"><circle class="c" cx="2.5" cy="2.5" r="2.5" transform="translate(2645 2884)"/></g><g transform="translate(-2435 -2854)"><circle class="c" cx="2.5" cy="2.5" r="2.5" transform="translate(2645 2884)"/></g><g transform="translate(-2420 -2854)"><circle class="c" cx="2.5" cy="2.5" r="2.5" transform="translate(2645 2884)"/></g><g transform="translate(-2405 -2854)"><circle class="c" cx="2.5" cy="2.5" r="2.5" transform="translate(2645 2884)"/></g><g transform="translate(-2390 -2854)"><circle class="c" cx="2.5" cy="2.5" r="2.5" transform="translate(2645 2884)"/></g><g transform="translate(-2375 -2854)"><circle class="c" cx="2.5" cy="2.5" r="2.5" transform="translate(2645 2884)"/></g><g transform="translate(-2360 -2854)"><circle class="c" cx="2.5" cy="2.5" r="2.5" transform="translate(2645 2884)"/></g><g transform="translate(-2345 -2854)"><circle class="c" cx="2.5" cy="2.5" r="2.5" transform="translate(2645 2884)"/></g><g transform="translate(-2330 -2854)"><circle class="c" cx="2.5" cy="2.5" r="2.5" transform="translate(2645 2884)"/></g><g transform="translate(-2315 -2854)"><circle class="c" cx="2.5" cy="2.5" r="2.5" transform="translate(2645 2884)"/></g><g transform="translate(-2300 -2854)"><circle class="c" cx="2.5" cy="2.5" r="2.5" transform="translate(2645 2884)"/></g><g transform="translate(-2285 -2854)"><circle class="c" cx="2.5" cy="2.5" r="2.5" transform="translate(2645 2884)"/></g><g transform="translate(-2270 -2854)"><circle class="c" cx="2.5" cy="2.5" r="2.5" transform="translate(2645 2884)"/></g><g transform="translate(-2255 -2854)"><circle class="c" cx="2.5" cy="2.5" r="2.5" transform="translate(2645 2884)"/></g><g transform="translate(-2240 -2854)"><circle class="c" cx="2.5" cy="2.5" r="2.5" transform="translate(2645 2884)"/></g><g transform="translate(-2225 -2854)"><circle class="c" cx="2.5" cy="2.5" r="2.5" transform="translate(2645 2884)"/></g><g transform="translate(-2210 -2854)"><circle class="c" cx="2.5" cy="2.5" r="2.5" transform="translate(2645 2884)"/></g><g transform="translate(-2195 -2854)"><circle class="c" cx="2.5" cy="2.5" r="2.5" transform="translate(2645 2884)"/></g><g transform="translate(-2645 -2839)"><circle class="c" cx="2.5" cy="2.5" r="2.5" transform="translate(2645 2884)"/></g><g transform="translate(-2630 -2839)"><circle class="c" cx="2.5" cy="2.5" r="2.5" transform="translate(2645 2884)"/></g><g transform="translate(-2615 -2839)"><circle class="c" cx="2.5" cy="2.5" r="2.5" transform="translate(2645 2884)"/></g><g transform="translate(-2600 -2839)"><circle class="c" cx="2.5" cy="2.5" r="2.5" transform="translate(2645 2884)"/></g><g transform="translate(-2585 -2839)"><circle class="c" cx="2.5" cy="2.5" r="2.5" transform="translate(2645 2884)"/></g><g transform="translate(-2570 -2839)"><circle class="c" cx="2.5" cy="2.5" r="2.5" transform="translate(2645 2884)"/></g><g transform="translate(-2555 -2839)"><circle class="c" cx="2.5" cy="2.5" r="2.5" transform="translate(2645 2884)"/></g><g transform="translate(-2540 -2839)"><circle class="c" cx="2.5" cy="2.5" r="2.5" transform="translate(2645 2884)"/></g><g transform="translate(-2525 -2839)"><circle class="c" cx="2.5" cy="2.5" r="2.5" transform="translate(2645 2884)"/></g><g transform="translate(-2510 -2839)"><circle class="c" cx="2.5" cy="2.5" r="2.5" transform="translate(2645 2884)"/></g><g transform="translate(-2495 -2839)"><circle class="c" cx="2.5" cy="2.5" r="2.5" transform="translate(2645 2884)"/></g><g transform="translate(-2480 -2839)"><circle class="c" cx="2.5" cy="2.5" r="2.5" transform="translate(2645 2884)"/></g><g transform="translate(-2465 -2839)"><circle class="c" cx="2.5" cy="2.5" r="2.5" transform="translate(2645 2884)"/></g><g transform="translate(-2450 -2839)"><circle class="c" cx="2.5" cy="2.5" r="2.5" transform="translate(2645 2884)"/></g><g transform="translate(-2435 -2839)"><circle class="c" cx="2.5" cy="2.5" r="2.5" transform="translate(2645 2884)"/></g><g transform="translate(-2420 -2839)"><circle class="c" cx="2.5" cy="2.5" r="2.5" transform="translate(2645 2884)"/></g><g transform="translate(-2405 -2839)"><circle class="c" cx="2.5" cy="2.5" r="2.5" transform="translate(2645 2884)"/></g><g transform="translate(-2390 -2839)"><circle class="c" cx="2.5" cy="2.5" r="2.5" transform="translate(2645 2884)"/></g><g transform="translate(-2375 -2839)"><circle class="c" cx="2.5" cy="2.5" r="2.5" transform="translate(2645 2884)"/></g><g transform="translate(-2360 -2839)"><circle class="c" cx="2.5" cy="2.5" r="2.5" transform="translate(2645 2884)"/></g><g transform="translate(-2345 -2839)"><circle class="c" cx="2.5" cy="2.5" r="2.5" transform="translate(2645 2884)"/></g><g transform="translate(-2330 -2839)"><circle class="c" cx="2.5" cy="2.5" r="2.5" transform="translate(2645 2884)"/></g><g transform="translate(-2315 -2839)"><circle class="c" cx="2.5" cy="2.5" r="2.5" transform="translate(2645 2884)"/></g><g transform="translate(-2300 -2839)"><circle class="c" cx="2.5" cy="2.5" r="2.5" transform="translate(2645 2884)"/></g><g transform="translate(-2285 -2839)"><circle class="c" cx="2.5" cy="2.5" r="2.5" transform="translate(2645 2884)"/></g><g transform="translate(-2270 -2839)"><circle class="c" cx="2.5" cy="2.5" r="2.5" transform="translate(2645 2884)"/></g><g transform="translate(-2255 -2839)"><circle class="c" cx="2.5" cy="2.5" r="2.5" transform="translate(2645 2884)"/></g><g transform="translate(-2240 -2839)"><circle class="c" cx="2.5" cy="2.5" r="2.5" transform="translate(2645 2884)"/></g><g transform="translate(-2225 -2839)"><circle class="c" cx="2.5" cy="2.5" r="2.5" transform="translate(2645 2884)"/></g><g transform="translate(-2210 -2839)"><circle class="c" cx="2.5" cy="2.5" r="2.5" transform="translate(2645 2884)"/></g><g transform="translate(-2195 -2839)"><circle class="c" cx="2.5" cy="2.5" r="2.5" transform="translate(2645 2884)"/></g><g transform="translate(-2645 -2824)"><circle class="c" cx="2.5" cy="2.5" r="2.5" transform="translate(2645 2884)"/></g><g transform="translate(-2630 -2824)"><circle class="c" cx="2.5" cy="2.5" r="2.5" transform="translate(2645 2884)"/></g><g transform="translate(-2615 -2824)"><circle class="c" cx="2.5" cy="2.5" r="2.5" transform="translate(2645 2884)"/></g><g transform="translate(-2600 -2824)"><circle class="c" cx="2.5" cy="2.5" r="2.5" transform="translate(2645 2884)"/></g><g transform="translate(-2585 -2824)"><circle class="c" cx="2.5" cy="2.5" r="2.5" transform="translate(2645 2884)"/></g><g transform="translate(-2570 -2824)"><circle class="c" cx="2.5" cy="2.5" r="2.5" transform="translate(2645 2884)"/></g><g transform="translate(-2555 -2824)"><circle class="c" cx="2.5" cy="2.5" r="2.5" transform="translate(2645 2884)"/></g><g transform="translate(-2540 -2824)"><circle class="c" cx="2.5" cy="2.5" r="2.5" transform="translate(2645 2884)"/></g><g transform="translate(-2525 -2824)"><circle class="c" cx="2.5" cy="2.5" r="2.5" transform="translate(2645 2884)"/></g><g transform="translate(-2510 -2824)"><circle class="c" cx="2.5" cy="2.5" r="2.5" transform="translate(2645 2884)"/></g><g transform="translate(-2495 -2824)"><circle class="c" cx="2.5" cy="2.5" r="2.5" transform="translate(2645 2884)"/></g><g transform="translate(-2480 -2824)"><circle class="c" cx="2.5" cy="2.5" r="2.5" transform="translate(2645 2884)"/></g><g transform="translate(-2465 -2824)"><circle class="c" cx="2.5" cy="2.5" r="2.5" transform="translate(2645 2884)"/></g><g transform="translate(-2450 -2824)"><circle class="c" cx="2.5" cy="2.5" r="2.5" transform="translate(2645 2884)"/></g><g transform="translate(-2435 -2824)"><circle class="c" cx="2.5" cy="2.5" r="2.5" transform="translate(2645 2884)"/></g><g transform="translate(-2420 -2824)"><circle class="c" cx="2.5" cy="2.5" r="2.5" transform="translate(2645 2884)"/></g><g transform="translate(-2405 -2824)"><circle class="c" cx="2.5" cy="2.5" r="2.5" transform="translate(2645 2884)"/></g><g transform="translate(-2390 -2824)"><circle class="c" cx="2.5" cy="2.5" r="2.5" transform="translate(2645 2884)"/></g><g transform="translate(-2375 -2824)"><circle class="c" cx="2.5" cy="2.5" r="2.5" transform="translate(2645 2884)"/></g><g transform="translate(-2360 -2824)"><circle class="c" cx="2.5" cy="2.5" r="2.5" transform="translate(2645 2884)"/></g><g transform="translate(-2345 -2824)"><circle class="c" cx="2.5" cy="2.5" r="2.5" transform="translate(2645 2884)"/></g><g transform="translate(-2330 -2824)"><circle class="c" cx="2.5" cy="2.5" r="2.5" transform="translate(2645 2884)"/></g><g transform="translate(-2315 -2824)"><circle class="c" cx="2.5" cy="2.5" r="2.5" transform="translate(2645 2884)"/></g><g transform="translate(-2300 -2824)"><circle class="c" cx="2.5" cy="2.5" r="2.5" transform="translate(2645 2884)"/></g><g transform="translate(-2285 -2824)"><circle class="c" cx="2.5" cy="2.5" r="2.5" transform="translate(2645 2884)"/></g><g transform="translate(-2270 -2824)"><circle class="c" cx="2.5" cy="2.5" r="2.5" transform="translate(2645 2884)"/></g><g transform="translate(-2255 -2824)"><circle class="c" cx="2.5" cy="2.5" r="2.5" transform="translate(2645 2884)"/></g><g transform="translate(-2240 -2824)"><circle class="c" cx="2.5" cy="2.5" r="2.5" transform="translate(2645 2884)"/></g><g transform="translate(-2225 -2824)"><circle class="c" cx="2.5" cy="2.5" r="2.5" transform="translate(2645 2884)"/></g><g transform="translate(-2210 -2824)"><circle class="c" cx="2.5" cy="2.5" r="2.5" transform="translate(2645 2884)"/></g><g transform="translate(-2195 -2824)"><circle class="c" cx="2.5" cy="2.5" r="2.5" transform="translate(2645 2884)"/></g><g transform="translate(-2645 -2809)"><circle class="c" cx="2.5" cy="2.5" r="2.5" transform="translate(2645 2884)"/></g><g transform="translate(-2630 -2809)"><circle class="c" cx="2.5" cy="2.5" r="2.5" transform="translate(2645 2884)"/></g><g transform="translate(-2615 -2809)"><circle class="c" cx="2.5" cy="2.5" r="2.5" transform="translate(2645 2884)"/></g><g transform="translate(-2600 -2809)"><circle class="c" cx="2.5" cy="2.5" r="2.5" transform="translate(2645 2884)"/></g><g transform="translate(-2585 -2809)"><circle class="c" cx="2.5" cy="2.5" r="2.5" transform="translate(2645 2884)"/></g><g transform="translate(-2570 -2809)"><circle class="c" cx="2.5" cy="2.5" r="2.5" transform="translate(2645 2884)"/></g><g transform="translate(-2555 -2809)"><circle class="c" cx="2.5" cy="2.5" r="2.5" transform="translate(2645 2884)"/></g><g transform="translate(-2540 -2809)"><circle class="c" cx="2.5" cy="2.5" r="2.5" transform="translate(2645 2884)"/></g><g transform="translate(-2525 -2809)"><circle class="c" cx="2.5" cy="2.5" r="2.5" transform="translate(2645 2884)"/></g><g transform="translate(-2510 -2809)"><circle class="c" cx="2.5" cy="2.5" r="2.5" transform="translate(2645 2884)"/></g><g transform="translate(-2495 -2809)"><circle class="c" cx="2.5" cy="2.5" r="2.5" transform="translate(2645 2884)"/></g><g transform="translate(-2480 -2809)"><circle class="c" cx="2.5" cy="2.5" r="2.5" transform="translate(2645 2884)"/></g><g transform="translate(-2465 -2809)"><circle class="c" cx="2.5" cy="2.5" r="2.5" transform="translate(2645 2884)"/></g><g transform="translate(-2450 -2809)"><circle class="c" cx="2.5" cy="2.5" r="2.5" transform="translate(2645 2884)"/></g><g transform="translate(-2435 -2809)"><circle class="c" cx="2.5" cy="2.5" r="2.5" transform="translate(2645 2884)"/></g><g transform="translate(-2420 -2809)"><circle class="c" cx="2.5" cy="2.5" r="2.5" transform="translate(2645 2884)"/></g><g transform="translate(-2405 -2809)"><circle class="c" cx="2.5" cy="2.5" r="2.5" transform="translate(2645 2884)"/></g><g transform="translate(-2390 -2809)"><circle class="c" cx="2.5" cy="2.5" r="2.5" transform="translate(2645 2884)"/></g><g transform="translate(-2375 -2809)"><circle class="c" cx="2.5" cy="2.5" r="2.5" transform="translate(2645 2884)"/></g><g transform="translate(-2360 -2809)"><circle class="c" cx="2.5" cy="2.5" r="2.5" transform="translate(2645 2884)"/></g><g transform="translate(-2345 -2809)"><circle class="c" cx="2.5" cy="2.5" r="2.5" transform="translate(2645 2884)"/></g><g transform="translate(-2330 -2809)"><circle class="c" cx="2.5" cy="2.5" r="2.5" transform="translate(2645 2884)"/></g><g transform="translate(-2315 -2809)"><circle class="c" cx="2.5" cy="2.5" r="2.5" transform="translate(2645 2884)"/></g><g transform="translate(-2300 -2809)"><circle class="c" cx="2.5" cy="2.5" r="2.5" transform="translate(2645 2884)"/></g><g transform="translate(-2285 -2809)"><circle class="c" cx="2.5" cy="2.5" r="2.5" transform="translate(2645 2884)"/></g><g transform="translate(-2270 -2809)"><circle class="c" cx="2.5" cy="2.5" r="2.5" transform="translate(2645 2884)"/></g><g transform="translate(-2255 -2809)"><circle class="c" cx="2.5" cy="2.5" r="2.5" transform="translate(2645 2884)"/></g><g transform="translate(-2240 -2809)"><circle class="c" cx="2.5" cy="2.5" r="2.5" transform="translate(2645 2884)"/></g><g transform="translate(-2225 -2809)"><circle class="c" cx="2.5" cy="2.5" r="2.5" transform="translate(2645 2884)"/></g><g transform="translate(-2210 -2809)"><circle class="c" cx="2.5" cy="2.5" r="2.5" transform="translate(2645 2884)"/></g><g transform="translate(-2195 -2809)"><circle class="c" cx="2.5" cy="2.5" r="2.5" transform="translate(2645 2884)"/></g><g transform="translate(-2645 -2794)"><circle class="c" cx="2.5" cy="2.5" r="2.5" transform="translate(2645 2884)"/></g><g transform="translate(-2630 -2794)"><circle class="c" cx="2.5" cy="2.5" r="2.5" transform="translate(2645 2884)"/></g><g transform="translate(-2615 -2794)"><circle class="c" cx="2.5" cy="2.5" r="2.5" transform="translate(2645 2884)"/></g><g transform="translate(-2600 -2794)"><circle class="c" cx="2.5" cy="2.5" r="2.5" transform="translate(2645 2884)"/></g><g transform="translate(-2585 -2794)"><circle class="c" cx="2.5" cy="2.5" r="2.5" transform="translate(2645 2884)"/></g><g transform="translate(-2570 -2794)"><circle class="c" cx="2.5" cy="2.5" r="2.5" transform="translate(2645 2884)"/></g><g transform="translate(-2555 -2794)"><circle class="c" cx="2.5" cy="2.5" r="2.5" transform="translate(2645 2884)"/></g><g transform="translate(-2540 -2794)"><circle class="c" cx="2.5" cy="2.5" r="2.5" transform="translate(2645 2884)"/></g><g transform="translate(-2525 -2794)"><circle class="c" cx="2.5" cy="2.5" r="2.5" transform="translate(2645 2884)"/></g><g transform="translate(-2510 -2794)"><circle class="c" cx="2.5" cy="2.5" r="2.5" transform="translate(2645 2884)"/></g><g transform="translate(-2495 -2794)"><circle class="c" cx="2.5" cy="2.5" r="2.5" transform="translate(2645 2884)"/></g><g transform="translate(-2480 -2794)"><circle class="c" cx="2.5" cy="2.5" r="2.5" transform="translate(2645 2884)"/></g><g transform="translate(-2465 -2794)"><circle class="c" cx="2.5" cy="2.5" r="2.5" transform="translate(2645 2884)"/></g><g transform="translate(-2450 -2794)"><circle class="c" cx="2.5" cy="2.5" r="2.5" transform="translate(2645 2884)"/></g><g transform="translate(-2435 -2794)"><circle class="c" cx="2.5" cy="2.5" r="2.5" transform="translate(2645 2884)"/></g><g transform="translate(-2420 -2794)"><circle class="c" cx="2.5" cy="2.5" r="2.5" transform="translate(2645 2884)"/></g><g transform="translate(-2405 -2794)"><circle class="c" cx="2.5" cy="2.5" r="2.5" transform="translate(2645 2884)"/></g><g transform="translate(-2390 -2794)"><circle class="c" cx="2.5" cy="2.5" r="2.5" transform="translate(2645 2884)"/></g><g transform="translate(-2375 -2794)"><circle class="c" cx="2.5" cy="2.5" r="2.5" transform="translate(2645 2884)"/></g><g transform="translate(-2360 -2794)"><circle class="c" cx="2.5" cy="2.5" r="2.5" transform="translate(2645 2884)"/></g><g transform="translate(-2345 -2794)"><circle class="c" cx="2.5" cy="2.5" r="2.5" transform="translate(2645 2884)"/></g><g transform="translate(-2330 -2794)"><circle class="c" cx="2.5" cy="2.5" r="2.5" transform="translate(2645 2884)"/></g><g transform="translate(-2315 -2794)"><circle class="c" cx="2.5" cy="2.5" r="2.5" transform="translate(2645 2884)"/></g><g transform="translate(-2300 -2794)"><circle class="c" cx="2.5" cy="2.5" r="2.5" transform="translate(2645 2884)"/></g><g transform="translate(-2285 -2794)"><circle class="c" cx="2.5" cy="2.5" r="2.5" transform="translate(2645 2884)"/></g><g transform="translate(-2270 -2794)"><circle class="c" cx="2.5" cy="2.5" r="2.5" transform="translate(2645 2884)"/></g><g transform="translate(-2255 -2794)"><circle class="c" cx="2.5" cy="2.5" r="2.5" transform="translate(2645 2884)"/></g><g transform="translate(-2240 -2794)"><circle class="c" cx="2.5" cy="2.5" r="2.5" transform="translate(2645 2884)"/></g><g transform="translate(-2225 -2794)"><circle class="c" cx="2.5" cy="2.5" r="2.5" transform="translate(2645 2884)"/></g><g transform="translate(-2210 -2794)"><circle class="c" cx="2.5" cy="2.5" r="2.5" transform="translate(2645 2884)"/></g><g transform="translate(-2195 -2794)"><circle class="c" cx="2.5" cy="2.5" r="2.5" transform="translate(2645 2884)"/></g><g transform="translate(-2645 -2779)"><circle class="c" cx="2.5" cy="2.5" r="2.5" transform="translate(2645 2884)"/></g><g transform="translate(-2630 -2779)"><circle class="c" cx="2.5" cy="2.5" r="2.5" transform="translate(2645 2884)"/></g><g transform="translate(-2615 -2779)"><circle class="c" cx="2.5" cy="2.5" r="2.5" transform="translate(2645 2884)"/></g><g transform="translate(-2600 -2779)"><circle class="c" cx="2.5" cy="2.5" r="2.5" transform="translate(2645 2884)"/></g><g transform="translate(-2585 -2779)"><circle class="c" cx="2.5" cy="2.5" r="2.5" transform="translate(2645 2884)"/></g><g transform="translate(-2570 -2779)"><circle class="c" cx="2.5" cy="2.5" r="2.5" transform="translate(2645 2884)"/></g><g transform="translate(-2555 -2779)"><circle class="c" cx="2.5" cy="2.5" r="2.5" transform="translate(2645 2884)"/></g><g transform="translate(-2540 -2779)"><circle class="c" cx="2.5" cy="2.5" r="2.5" transform="translate(2645 2884)"/></g><g transform="translate(-2525 -2779)"><circle class="c" cx="2.5" cy="2.5" r="2.5" transform="translate(2645 2884)"/></g><g transform="translate(-2510 -2779)"><circle class="c" cx="2.5" cy="2.5" r="2.5" transform="translate(2645 2884)"/></g><g transform="translate(-2495 -2779)"><circle class="c" cx="2.5" cy="2.5" r="2.5" transform="translate(2645 2884)"/></g><g transform="translate(-2480 -2779)"><circle class="c" cx="2.5" cy="2.5" r="2.5" transform="translate(2645 2884)"/></g><g transform="translate(-2465 -2779)"><circle class="c" cx="2.5" cy="2.5" r="2.5" transform="translate(2645 2884)"/></g><g transform="translate(-2450 -2779)"><circle class="c" cx="2.5" cy="2.5" r="2.5" transform="translate(2645 2884)"/></g><g transform="translate(-2435 -2779)"><circle class="c" cx="2.5" cy="2.5" r="2.5" transform="translate(2645 2884)"/></g><g transform="translate(-2420 -2779)"><circle class="c" cx="2.5" cy="2.5" r="2.5" transform="translate(2645 2884)"/></g><g transform="translate(-2405 -2779)"><circle class="c" cx="2.5" cy="2.5" r="2.5" transform="translate(2645 2884)"/></g><g transform="translate(-2390 -2779)"><circle class="c" cx="2.5" cy="2.5" r="2.5" transform="translate(2645 2884)"/></g><g transform="translate(-2375 -2779)"><circle class="c" cx="2.5" cy="2.5" r="2.5" transform="translate(2645 2884)"/></g><g transform="translate(-2360 -2779)"><circle class="c" cx="2.5" cy="2.5" r="2.5" transform="translate(2645 2884)"/></g><g transform="translate(-2345 -2779)"><circle class="c" cx="2.5" cy="2.5" r="2.5" transform="translate(2645 2884)"/></g><g transform="translate(-2330 -2779)"><circle class="c" cx="2.5" cy="2.5" r="2.5" transform="translate(2645 2884)"/></g><g transform="translate(-2315 -2779)"><circle class="c" cx="2.5" cy="2.5" r="2.5" transform="translate(2645 2884)"/></g><g transform="translate(-2300 -2779)"><circle class="c" cx="2.5" cy="2.5" r="2.5" transform="translate(2645 2884)"/></g><g transform="translate(-2285 -2779)"><circle class="c" cx="2.5" cy="2.5" r="2.5" transform="translate(2645 2884)"/></g><g transform="translate(-2270 -2779)"><circle class="c" cx="2.5" cy="2.5" r="2.5" transform="translate(2645 2884)"/></g><g transform="translate(-2255 -2779)"><circle class="c" cx="2.5" cy="2.5" r="2.5" transform="translate(2645 2884)"/></g><g transform="translate(-2240 -2779)"><circle class="c" cx="2.5" cy="2.5" r="2.5" transform="translate(2645 2884)"/></g><g transform="translate(-2225 -2779)"><circle class="c" cx="2.5" cy="2.5" r="2.5" transform="translate(2645 2884)"/></g><g transform="translate(-2210 -2779)"><circle class="c" cx="2.5" cy="2.5" r="2.5" transform="translate(2645 2884)"/></g><g transform="translate(-2195 -2779)"><circle class="c" cx="2.5" cy="2.5" r="2.5" transform="translate(2645 2884)"/></g><g transform="translate(-2645 -2764)"><circle class="c" cx="2.5" cy="2.5" r="2.5" transform="translate(2645 2884)"/></g><g transform="translate(-2630 -2764)"><circle class="c" cx="2.5" cy="2.5" r="2.5" transform="translate(2645 2884)"/></g><g transform="translate(-2615 -2764)"><circle class="c" cx="2.5" cy="2.5" r="2.5" transform="translate(2645 2884)"/></g><g transform="translate(-2600 -2764)"><circle class="c" cx="2.5" cy="2.5" r="2.5" transform="translate(2645 2884)"/></g><g transform="translate(-2585 -2764)"><circle class="c" cx="2.5" cy="2.5" r="2.5" transform="translate(2645 2884)"/></g><g transform="translate(-2570 -2764)"><circle class="c" cx="2.5" cy="2.5" r="2.5" transform="translate(2645 2884)"/></g><g transform="translate(-2555 -2764)"><circle class="c" cx="2.5" cy="2.5" r="2.5" transform="translate(2645 2884)"/></g><g transform="translate(-2540 -2764)"><circle class="c" cx="2.5" cy="2.5" r="2.5" transform="translate(2645 2884)"/></g><g transform="translate(-2525 -2764)"><circle class="c" cx="2.5" cy="2.5" r="2.5" transform="translate(2645 2884)"/></g><g transform="translate(-2510 -2764)"><circle class="c" cx="2.5" cy="2.5" r="2.5" transform="translate(2645 2884)"/></g><g transform="translate(-2495 -2764)"><circle class="c" cx="2.5" cy="2.5" r="2.5" transform="translate(2645 2884)"/></g><g transform="translate(-2480 -2764)"><circle class="c" cx="2.5" cy="2.5" r="2.5" transform="translate(2645 2884)"/></g><g transform="translate(-2465 -2764)"><circle class="c" cx="2.5" cy="2.5" r="2.5" transform="translate(2645 2884)"/></g><g transform="translate(-2450 -2764)"><circle class="c" cx="2.5" cy="2.5" r="2.5" transform="translate(2645 2884)"/></g><g transform="translate(-2435 -2764)"><circle class="c" cx="2.5" cy="2.5" r="2.5" transform="translate(2645 2884)"/></g><g transform="translate(-2420 -2764)"><circle class="c" cx="2.5" cy="2.5" r="2.5" transform="translate(2645 2884)"/></g><g transform="translate(-2405 -2764)"><circle class="c" cx="2.5" cy="2.5" r="2.5" transform="translate(2645 2884)"/></g><g transform="translate(-2390 -2764)"><circle class="c" cx="2.5" cy="2.5" r="2.5" transform="translate(2645 2884)"/></g><g transform="translate(-2375 -2764)"><circle class="c" cx="2.5" cy="2.5" r="2.5" transform="translate(2645 2884)"/></g><g transform="translate(-2360 -2764)"><circle class="c" cx="2.5" cy="2.5" r="2.5" transform="translate(2645 2884)"/></g><g transform="translate(-2345 -2764)"><circle class="c" cx="2.5" cy="2.5" r="2.5" transform="translate(2645 2884)"/></g><g transform="translate(-2330 -2764)"><circle class="c" cx="2.5" cy="2.5" r="2.5" transform="translate(2645 2884)"/></g><g transform="translate(-2315 -2764)"><circle class="c" cx="2.5" cy="2.5" r="2.5" transform="translate(2645 2884)"/></g><g transform="translate(-2300 -2764)"><circle class="c" cx="2.5" cy="2.5" r="2.5" transform="translate(2645 2884)"/></g><g transform="translate(-2285 -2764)"><circle class="c" cx="2.5" cy="2.5" r="2.5" transform="translate(2645 2884)"/></g><g transform="translate(-2270 -2764)"><circle class="c" cx="2.5" cy="2.5" r="2.5" transform="translate(2645 2884)"/></g><g transform="translate(-2255 -2764)"><circle class="c" cx="2.5" cy="2.5" r="2.5" transform="translate(2645 2884)"/></g><g transform="translate(-2240 -2764)"><circle class="c" cx="2.5" cy="2.5" r="2.5" transform="translate(2645 2884)"/></g><g transform="translate(-2225 -2764)"><circle class="c" cx="2.5" cy="2.5" r="2.5" transform="translate(2645 2884)"/></g><g transform="translate(-2210 -2764)"><circle class="c" cx="2.5" cy="2.5" r="2.5" transform="translate(2645 2884)"/></g><g transform="translate(-2195 -2764)"><circle class="c" cx="2.5" cy="2.5" r="2.5" transform="translate(2645 2884)"/></g><g transform="translate(-2645 -2749)"><circle class="c" cx="2.5" cy="2.5" r="2.5" transform="translate(2645 2884)"/></g><g transform="translate(-2630 -2749)"><circle class="c" cx="2.5" cy="2.5" r="2.5" transform="translate(2645 2884)"/></g><g transform="translate(-2615 -2749)"><circle class="c" cx="2.5" cy="2.5" r="2.5" transform="translate(2645 2884)"/></g><g transform="translate(-2600 -2749)"><circle class="c" cx="2.5" cy="2.5" r="2.5" transform="translate(2645 2884)"/></g><g transform="translate(-2585 -2749)"><circle class="c" cx="2.5" cy="2.5" r="2.5" transform="translate(2645 2884)"/></g><g transform="translate(-2570 -2749)"><circle class="c" cx="2.5" cy="2.5" r="2.5" transform="translate(2645 2884)"/></g><g transform="translate(-2555 -2749)"><circle class="c" cx="2.5" cy="2.5" r="2.5" transform="translate(2645 2884)"/></g><g transform="translate(-2540 -2749)"><circle class="c" cx="2.5" cy="2.5" r="2.5" transform="translate(2645 2884)"/></g><g transform="translate(-2525 -2749)"><circle class="c" cx="2.5" cy="2.5" r="2.5" transform="translate(2645 2884)"/></g><g transform="translate(-2510 -2749)"><circle class="c" cx="2.5" cy="2.5" r="2.5" transform="translate(2645 2884)"/></g><g transform="translate(-2495 -2749)"><circle class="c" cx="2.5" cy="2.5" r="2.5" transform="translate(2645 2884)"/></g><g transform="translate(-2480 -2749)"><circle class="c" cx="2.5" cy="2.5" r="2.5" transform="translate(2645 2884)"/></g><g transform="translate(-2465 -2749)"><circle class="c" cx="2.5" cy="2.5" r="2.5" transform="translate(2645 2884)"/></g><g transform="translate(-2450 -2749)"><circle class="c" cx="2.5" cy="2.5" r="2.5" transform="translate(2645 2884)"/></g><g transform="translate(-2435 -2749)"><circle class="c" cx="2.5" cy="2.5" r="2.5" transform="translate(2645 2884)"/></g><g transform="translate(-2420 -2749)"><circle class="c" cx="2.5" cy="2.5" r="2.5" transform="translate(2645 2884)"/></g><g transform="translate(-2405 -2749)"><circle class="c" cx="2.5" cy="2.5" r="2.5" transform="translate(2645 2884)"/></g><g transform="translate(-2390 -2749)"><circle class="c" cx="2.5" cy="2.5" r="2.5" transform="translate(2645 2884)"/></g><g transform="translate(-2375 -2749)"><circle class="c" cx="2.5" cy="2.5" r="2.5" transform="translate(2645 2884)"/></g><g transform="translate(-2360 -2749)"><circle class="c" cx="2.5" cy="2.5" r="2.5" transform="translate(2645 2884)"/></g><g transform="translate(-2345 -2749)"><circle class="c" cx="2.5" cy="2.5" r="2.5" transform="translate(2645 2884)"/></g><g transform="translate(-2330 -2749)"><circle class="c" cx="2.5" cy="2.5" r="2.5" transform="translate(2645 2884)"/></g><g transform="translate(-2315 -2749)"><circle class="c" cx="2.5" cy="2.5" r="2.5" transform="translate(2645 2884)"/></g><g transform="translate(-2300 -2749)"><circle class="c" cx="2.5" cy="2.5" r="2.5" transform="translate(2645 2884)"/></g><g transform="translate(-2285 -2749)"><circle class="c" cx="2.5" cy="2.5" r="2.5" transform="translate(2645 2884)"/></g><g transform="translate(-2270 -2749)"><circle class="c" cx="2.5" cy="2.5" r="2.5" transform="translate(2645 2884)"/></g><g transform="translate(-2255 -2749)"><circle class="c" cx="2.5" cy="2.5" r="2.5" transform="translate(2645 2884)"/></g><g transform="translate(-2240 -2749)"><circle class="c" cx="2.5" cy="2.5" r="2.5" transform="translate(2645 2884)"/></g><g transform="translate(-2225 -2749)"><circle class="c" cx="2.5" cy="2.5" r="2.5" transform="translate(2645 2884)"/></g><g transform="translate(-2210 -2749)"><circle class="c" cx="2.5" cy="2.5" r="2.5" transform="translate(2645 2884)"/></g><g transform="translate(-2195 -2749)"><circle class="c" cx="2.5" cy="2.5" r="2.5" transform="translate(2645 2884)"/></g><g transform="translate(-2645 -2734)"><circle class="c" cx="2.5" cy="2.5" r="2.5" transform="translate(2645 2884)"/></g><g transform="translate(-2630 -2734)"><circle class="c" cx="2.5" cy="2.5" r="2.5" transform="translate(2645 2884)"/></g><g transform="translate(-2615 -2734)"><circle class="c" cx="2.5" cy="2.5" r="2.5" transform="translate(2645 2884)"/></g><g transform="translate(-2600 -2734)"><circle class="c" cx="2.5" cy="2.5" r="2.5" transform="translate(2645 2884)"/></g><g transform="translate(-2585 -2734)"><circle class="c" cx="2.5" cy="2.5" r="2.5" transform="translate(2645 2884)"/></g><g transform="translate(-2570 -2734)"><circle class="c" cx="2.5" cy="2.5" r="2.5" transform="translate(2645 2884)"/></g><g transform="translate(-2555 -2734)"><circle class="c" cx="2.5" cy="2.5" r="2.5" transform="translate(2645 2884)"/></g><g transform="translate(-2540 -2734)"><circle class="c" cx="2.5" cy="2.5" r="2.5" transform="translate(2645 2884)"/></g><g transform="translate(-2525 -2734)"><circle class="c" cx="2.5" cy="2.5" r="2.5" transform="translate(2645 2884)"/></g><g transform="translate(-2510 -2734)"><circle class="c" cx="2.5" cy="2.5" r="2.5" transform="translate(2645 2884)"/></g><g transform="translate(-2495 -2734)"><circle class="c" cx="2.5" cy="2.5" r="2.5" transform="translate(2645 2884)"/></g><g transform="translate(-2480 -2734)"><circle class="c" cx="2.5" cy="2.5" r="2.5" transform="translate(2645 2884)"/></g><g transform="translate(-2465 -2734)"><circle class="c" cx="2.5" cy="2.5" r="2.5" transform="translate(2645 2884)"/></g><g transform="translate(-2450 -2734)"><circle class="c" cx="2.5" cy="2.5" r="2.5" transform="translate(2645 2884)"/></g><g transform="translate(-2435 -2734)"><circle class="c" cx="2.5" cy="2.5" r="2.5" transform="translate(2645 2884)"/></g><g transform="translate(-2420 -2734)"><circle class="c" cx="2.5" cy="2.5" r="2.5" transform="translate(2645 2884)"/></g><g transform="translate(-2405 -2734)"><circle class="c" cx="2.5" cy="2.5" r="2.5" transform="translate(2645 2884)"/></g><g transform="translate(-2390 -2734)"><circle class="c" cx="2.5" cy="2.5" r="2.5" transform="translate(2645 2884)"/></g><g transform="translate(-2375 -2734)"><circle class="c" cx="2.5" cy="2.5" r="2.5" transform="translate(2645 2884)"/></g><g transform="translate(-2360 -2734)"><circle class="c" cx="2.5" cy="2.5" r="2.5" transform="translate(2645 2884)"/></g><g transform="translate(-2345 -2734)"><circle class="c" cx="2.5" cy="2.5" r="2.5" transform="translate(2645 2884)"/></g><g transform="translate(-2330 -2734)"><circle class="c" cx="2.5" cy="2.5" r="2.5" transform="translate(2645 2884)"/></g><g transform="translate(-2315 -2734)"><circle class="c" cx="2.5" cy="2.5" r="2.5" transform="translate(2645 2884)"/></g><g transform="translate(-2300 -2734)"><circle class="c" cx="2.5" cy="2.5" r="2.5" transform="translate(2645 2884)"/></g><g transform="translate(-2285 -2734)"><circle class="c" cx="2.5" cy="2.5" r="2.5" transform="translate(2645 2884)"/></g><g transform="translate(-2270 -2734)"><circle class="c" cx="2.5" cy="2.5" r="2.5" transform="translate(2645 2884)"/></g><g transform="translate(-2255 -2734)"><circle class="c" cx="2.5" cy="2.5" r="2.5" transform="translate(2645 2884)"/></g><g transform="translate(-2240 -2734)"><circle class="c" cx="2.5" cy="2.5" r="2.5" transform="translate(2645 2884)"/></g><g transform="translate(-2225 -2734)"><circle class="c" cx="2.5" cy="2.5" r="2.5" transform="translate(2645 2884)"/></g><g transform="translate(-2210 -2734)"><circle class="c" cx="2.5" cy="2.5" r="2.5" transform="translate(2645 2884)"/></g><g transform="translate(-2195 -2734)"><circle class="c" cx="2.5" cy="2.5" r="2.5" transform="translate(2645 2884)"/></g><g transform="translate(-2645 -2719)"><circle class="c" cx="2.5" cy="2.5" r="2.5" transform="translate(2645 2884)"/></g><g transform="translate(-2630 -2719)"><circle class="c" cx="2.5" cy="2.5" r="2.5" transform="translate(2645 2884)"/></g><g transform="translate(-2615 -2719)"><circle class="c" cx="2.5" cy="2.5" r="2.5" transform="translate(2645 2884)"/></g><g transform="translate(-2600 -2719)"><circle class="c" cx="2.5" cy="2.5" r="2.5" transform="translate(2645 2884)"/></g><g transform="translate(-2585 -2719)"><circle class="c" cx="2.5" cy="2.5" r="2.5" transform="translate(2645 2884)"/></g><g transform="translate(-2570 -2719)"><circle class="c" cx="2.5" cy="2.5" r="2.5" transform="translate(2645 2884)"/></g><g transform="translate(-2555 -2719)"><circle class="c" cx="2.5" cy="2.5" r="2.5" transform="translate(2645 2884)"/></g><g transform="translate(-2540 -2719)"><circle class="c" cx="2.5" cy="2.5" r="2.5" transform="translate(2645 2884)"/></g><g transform="translate(-2525 -2719)"><circle class="c" cx="2.5" cy="2.5" r="2.5" transform="translate(2645 2884)"/></g><g transform="translate(-2510 -2719)"><circle class="c" cx="2.5" cy="2.5" r="2.5" transform="translate(2645 2884)"/></g><g transform="translate(-2495 -2719)"><circle class="c" cx="2.5" cy="2.5" r="2.5" transform="translate(2645 2884)"/></g><g transform="translate(-2480 -2719)"><circle class="c" cx="2.5" cy="2.5" r="2.5" transform="translate(2645 2884)"/></g><g transform="translate(-2465 -2719)"><circle class="c" cx="2.5" cy="2.5" r="2.5" transform="translate(2645 2884)"/></g><g transform="translate(-2450 -2719)"><circle class="c" cx="2.5" cy="2.5" r="2.5" transform="translate(2645 2884)"/></g><g transform="translate(-2435 -2719)"><circle class="c" cx="2.5" cy="2.5" r="2.5" transform="translate(2645 2884)"/></g><g transform="translate(-2420 -2719)"><circle class="c" cx="2.5" cy="2.5" r="2.5" transform="translate(2645 2884)"/></g><g transform="translate(-2405 -2719)"><circle class="c" cx="2.5" cy="2.5" r="2.5" transform="translate(2645 2884)"/></g><g transform="translate(-2390 -2719)"><circle class="c" cx="2.5" cy="2.5" r="2.5" transform="translate(2645 2884)"/></g><g transform="translate(-2375 -2719)"><circle class="c" cx="2.5" cy="2.5" r="2.5" transform="translate(2645 2884)"/></g><g transform="translate(-2360 -2719)"><circle class="c" cx="2.5" cy="2.5" r="2.5" transform="translate(2645 2884)"/></g><g transform="translate(-2345 -2719)"><circle class="c" cx="2.5" cy="2.5" r="2.5" transform="translate(2645 2884)"/></g><g transform="translate(-2330 -2719)"><circle class="c" cx="2.5" cy="2.5" r="2.5" transform="translate(2645 2884)"/></g><g transform="translate(-2315 -2719)"><circle class="c" cx="2.5" cy="2.5" r="2.5" transform="translate(2645 2884)"/></g><g transform="translate(-2300 -2719)"><circle class="c" cx="2.5" cy="2.5" r="2.5" transform="translate(2645 2884)"/></g><g transform="translate(-2285 -2719)"><circle class="c" cx="2.5" cy="2.5" r="2.5" transform="translate(2645 2884)"/></g><g transform="translate(-2270 -2719)"><circle class="c" cx="2.5" cy="2.5" r="2.5" transform="translate(2645 2884)"/></g><g transform="translate(-2255 -2719)"><circle class="c" cx="2.5" cy="2.5" r="2.5" transform="translate(2645 2884)"/></g><g transform="translate(-2240 -2719)"><circle class="c" cx="2.5" cy="2.5" r="2.5" transform="translate(2645 2884)"/></g><g transform="translate(-2225 -2719)"><circle class="c" cx="2.5" cy="2.5" r="2.5" transform="translate(2645 2884)"/></g><g transform="translate(-2210 -2719)"><circle class="c" cx="2.5" cy="2.5" r="2.5" transform="translate(2645 2884)"/></g><g transform="translate(-2195 -2719)"><circle class="c" cx="2.5" cy="2.5" r="2.5" transform="translate(2645 2884)"/></g><g transform="translate(-2645 -2704)"><circle class="c" cx="2.5" cy="2.5" r="2.5" transform="translate(2645 2884)"/></g><g transform="translate(-2630 -2704)"><circle class="c" cx="2.5" cy="2.5" r="2.5" transform="translate(2645 2884)"/></g><g transform="translate(-2615 -2704)"><circle class="c" cx="2.5" cy="2.5" r="2.5" transform="translate(2645 2884)"/></g><g transform="translate(-2600 -2704)"><circle class="c" cx="2.5" cy="2.5" r="2.5" transform="translate(2645 2884)"/></g><g transform="translate(-2585 -2704)"><circle class="c" cx="2.5" cy="2.5" r="2.5" transform="translate(2645 2884)"/></g><g transform="translate(-2570 -2704)"><circle class="c" cx="2.5" cy="2.5" r="2.5" transform="translate(2645 2884)"/></g><g transform="translate(-2555 -2704)"><circle class="c" cx="2.5" cy="2.5" r="2.5" transform="translate(2645 2884)"/></g><g transform="translate(-2540 -2704)"><circle class="c" cx="2.5" cy="2.5" r="2.5" transform="translate(2645 2884)"/></g><g transform="translate(-2525 -2704)"><circle class="c" cx="2.5" cy="2.5" r="2.5" transform="translate(2645 2884)"/></g><g transform="translate(-2510 -2704)"><circle class="c" cx="2.5" cy="2.5" r="2.5" transform="translate(2645 2884)"/></g><g transform="translate(-2495 -2704)"><circle class="c" cx="2.5" cy="2.5" r="2.5" transform="translate(2645 2884)"/></g><g transform="translate(-2480 -2704)"><circle class="c" cx="2.5" cy="2.5" r="2.5" transform="translate(2645 2884)"/></g><g transform="translate(-2465 -2704)"><circle class="c" cx="2.5" cy="2.5" r="2.5" transform="translate(2645 2884)"/></g><g transform="translate(-2450 -2704)"><circle class="c" cx="2.5" cy="2.5" r="2.5" transform="translate(2645 2884)"/></g><g transform="translate(-2435 -2704)"><circle class="c" cx="2.5" cy="2.5" r="2.5" transform="translate(2645 2884)"/></g><g transform="translate(-2420 -2704)"><circle class="c" cx="2.5" cy="2.5" r="2.5" transform="translate(2645 2884)"/></g><g transform="translate(-2405 -2704)"><circle class="c" cx="2.5" cy="2.5" r="2.5" transform="translate(2645 2884)"/></g><g transform="translate(-2390 -2704)"><circle class="c" cx="2.5" cy="2.5" r="2.5" transform="translate(2645 2884)"/></g><g transform="translate(-2375 -2704)"><circle class="c" cx="2.5" cy="2.5" r="2.5" transform="translate(2645 2884)"/></g><g transform="translate(-2360 -2704)"><circle class="c" cx="2.5" cy="2.5" r="2.5" transform="translate(2645 2884)"/></g><g transform="translate(-2345 -2704)"><circle class="c" cx="2.5" cy="2.5" r="2.5" transform="translate(2645 2884)"/></g><g transform="translate(-2330 -2704)"><circle class="c" cx="2.5" cy="2.5" r="2.5" transform="translate(2645 2884)"/></g><g transform="translate(-2315 -2704)"><circle class="c" cx="2.5" cy="2.5" r="2.5" transform="translate(2645 2884)"/></g><g transform="translate(-2300 -2704)"><circle class="c" cx="2.5" cy="2.5" r="2.5" transform="translate(2645 2884)"/></g><g transform="translate(-2285 -2704)"><circle class="c" cx="2.5" cy="2.5" r="2.5" transform="translate(2645 2884)"/></g><g transform="translate(-2270 -2704)"><circle class="c" cx="2.5" cy="2.5" r="2.5" transform="translate(2645 2884)"/></g><g transform="translate(-2255 -2704)"><circle class="c" cx="2.5" cy="2.5" r="2.5" transform="translate(2645 2884)"/></g><g transform="translate(-2240 -2704)"><circle class="c" cx="2.5" cy="2.5" r="2.5" transform="translate(2645 2884)"/></g><g transform="translate(-2225 -2704)"><circle class="c" cx="2.5" cy="2.5" r="2.5" transform="translate(2645 2884)"/></g><g transform="translate(-2210 -2704)"><circle class="c" cx="2.5" cy="2.5" r="2.5" transform="translate(2645 2884)"/></g><g transform="translate(-2195 -2704)"><circle class="c" cx="2.5" cy="2.5" r="2.5" transform="translate(2645 2884)"/></g><g transform="translate(-2645 -2689)"><circle class="c" cx="2.5" cy="2.5" r="2.5" transform="translate(2645 2884)"/></g><g transform="translate(-2630 -2689)"><circle class="c" cx="2.5" cy="2.5" r="2.5" transform="translate(2645 2884)"/></g><g transform="translate(-2615 -2689)"><circle class="c" cx="2.5" cy="2.5" r="2.5" transform="translate(2645 2884)"/></g><g transform="translate(-2600 -2689)"><circle class="c" cx="2.5" cy="2.5" r="2.5" transform="translate(2645 2884)"/></g><g transform="translate(-2585 -2689)"><circle class="c" cx="2.5" cy="2.5" r="2.5" transform="translate(2645 2884)"/></g><g transform="translate(-2570 -2689)"><circle class="c" cx="2.5" cy="2.5" r="2.5" transform="translate(2645 2884)"/></g><g transform="translate(-2555 -2689)"><circle class="c" cx="2.5" cy="2.5" r="2.5" transform="translate(2645 2884)"/></g><g transform="translate(-2540 -2689)"><circle class="c" cx="2.5" cy="2.5" r="2.5" transform="translate(2645 2884)"/></g><g transform="translate(-2525 -2689)"><circle class="c" cx="2.5" cy="2.5" r="2.5" transform="translate(2645 2884)"/></g><g transform="translate(-2510 -2689)"><circle class="c" cx="2.5" cy="2.5" r="2.5" transform="translate(2645 2884)"/></g><g transform="translate(-2495 -2689)"><circle class="c" cx="2.5" cy="2.5" r="2.5" transform="translate(2645 2884)"/></g><g transform="translate(-2480 -2689)"><circle class="c" cx="2.5" cy="2.5" r="2.5" transform="translate(2645 2884)"/></g><g transform="translate(-2465 -2689)"><circle class="c" cx="2.5" cy="2.5" r="2.5" transform="translate(2645 2884)"/></g><g transform="translate(-2450 -2689)"><circle class="c" cx="2.5" cy="2.5" r="2.5" transform="translate(2645 2884)"/></g><g transform="translate(-2435 -2689)"><circle class="c" cx="2.5" cy="2.5" r="2.5" transform="translate(2645 2884)"/></g><g transform="translate(-2420 -2689)"><circle class="c" cx="2.5" cy="2.5" r="2.5" transform="translate(2645 2884)"/></g><g transform="translate(-2405 -2689)"><circle class="c" cx="2.5" cy="2.5" r="2.5" transform="translate(2645 2884)"/></g><g transform="translate(-2390 -2689)"><circle class="c" cx="2.5" cy="2.5" r="2.5" transform="translate(2645 2884)"/></g><g transform="translate(-2375 -2689)"><circle class="c" cx="2.5" cy="2.5" r="2.5" transform="translate(2645 2884)"/></g><g transform="translate(-2360 -2689)"><circle class="c" cx="2.5" cy="2.5" r="2.5" transform="translate(2645 2884)"/></g><g transform="translate(-2345 -2689)"><circle class="c" cx="2.5" cy="2.5" r="2.5" transform="translate(2645 2884)"/></g><g transform="translate(-2330 -2689)"><circle class="c" cx="2.5" cy="2.5" r="2.5" transform="translate(2645 2884)"/></g><g transform="translate(-2315 -2689)"><circle class="c" cx="2.5" cy="2.5" r="2.5" transform="translate(2645 2884)"/></g><g transform="translate(-2300 -2689)"><circle class="c" cx="2.5" cy="2.5" r="2.5" transform="translate(2645 2884)"/></g><g transform="translate(-2285 -2689)"><circle class="c" cx="2.5" cy="2.5" r="2.5" transform="translate(2645 2884)"/></g><g transform="translate(-2270 -2689)"><circle class="c" cx="2.5" cy="2.5" r="2.5" transform="translate(2645 2884)"/></g><g transform="translate(-2255 -2689)"><circle class="c" cx="2.5" cy="2.5" r="2.5" transform="translate(2645 2884)"/></g><g transform="translate(-2240 -2689)"><circle class="c" cx="2.5" cy="2.5" r="2.5" transform="translate(2645 2884)"/></g><g transform="translate(-2225 -2689)"><circle class="c" cx="2.5" cy="2.5" r="2.5" transform="translate(2645 2884)"/></g><g transform="translate(-2210 -2689)"><circle class="c" cx="2.5" cy="2.5" r="2.5" transform="translate(2645 2884)"/></g><g transform="translate(-2195 -2689)"><circle class="c" cx="2.5" cy="2.5" r="2.5" transform="translate(2645 2884)"/></g><g transform="translate(-2645 -2674)"><circle class="c" cx="2.5" cy="2.5" r="2.5" transform="translate(2645 2884)"/></g><g transform="translate(-2630 -2674)"><circle class="c" cx="2.5" cy="2.5" r="2.5" transform="translate(2645 2884)"/></g><g transform="translate(-2615 -2674)"><circle class="c" cx="2.5" cy="2.5" r="2.5" transform="translate(2645 2884)"/></g><g transform="translate(-2600 -2674)"><circle class="c" cx="2.5" cy="2.5" r="2.5" transform="translate(2645 2884)"/></g><g transform="translate(-2585 -2674)"><circle class="c" cx="2.5" cy="2.5" r="2.5" transform="translate(2645 2884)"/></g><g transform="translate(-2570 -2674)"><circle class="c" cx="2.5" cy="2.5" r="2.5" transform="translate(2645 2884)"/></g><g transform="translate(-2555 -2674)"><circle class="c" cx="2.5" cy="2.5" r="2.5" transform="translate(2645 2884)"/></g><g transform="translate(-2540 -2674)"><circle class="c" cx="2.5" cy="2.5" r="2.5" transform="translate(2645 2884)"/></g><g transform="translate(-2525 -2674)"><circle class="c" cx="2.5" cy="2.5" r="2.5" transform="translate(2645 2884)"/></g><g transform="translate(-2510 -2674)"><circle class="c" cx="2.5" cy="2.5" r="2.5" transform="translate(2645 2884)"/></g><g transform="translate(-2495 -2674)"><circle class="c" cx="2.5" cy="2.5" r="2.5" transform="translate(2645 2884)"/></g><g transform="translate(-2480 -2674)"><circle class="c" cx="2.5" cy="2.5" r="2.5" transform="translate(2645 2884)"/></g><g transform="translate(-2465 -2674)"><circle class="c" cx="2.5" cy="2.5" r="2.5" transform="translate(2645 2884)"/></g><g transform="translate(-2450 -2674)"><circle class="c" cx="2.5" cy="2.5" r="2.5" transform="translate(2645 2884)"/></g><g transform="translate(-2435 -2674)"><circle class="c" cx="2.5" cy="2.5" r="2.5" transform="translate(2645 2884)"/></g><g transform="translate(-2420 -2674)"><circle class="c" cx="2.5" cy="2.5" r="2.5" transform="translate(2645 2884)"/></g><g transform="translate(-2405 -2674)"><circle class="c" cx="2.5" cy="2.5" r="2.5" transform="translate(2645 2884)"/></g><g transform="translate(-2390 -2674)"><circle class="c" cx="2.5" cy="2.5" r="2.5" transform="translate(2645 2884)"/></g><g transform="translate(-2375 -2674)"><circle class="c" cx="2.5" cy="2.5" r="2.5" transform="translate(2645 2884)"/></g><g transform="translate(-2360 -2674)"><circle class="c" cx="2.5" cy="2.5" r="2.5" transform="translate(2645 2884)"/></g><g transform="translate(-2345 -2674)"><circle class="c" cx="2.5" cy="2.5" r="2.5" transform="translate(2645 2884)"/></g><g transform="translate(-2330 -2674)"><circle class="c" cx="2.5" cy="2.5" r="2.5" transform="translate(2645 2884)"/></g><g transform="translate(-2315 -2674)"><circle class="c" cx="2.5" cy="2.5" r="2.5" transform="translate(2645 2884)"/></g><g transform="translate(-2300 -2674)"><circle class="c" cx="2.5" cy="2.5" r="2.5" transform="translate(2645 2884)"/></g><g transform="translate(-2285 -2674)"><circle class="c" cx="2.5" cy="2.5" r="2.5" transform="translate(2645 2884)"/></g><g transform="translate(-2270 -2674)"><circle class="c" cx="2.5" cy="2.5" r="2.5" transform="translate(2645 2884)"/></g><g transform="translate(-2255 -2674)"><circle class="c" cx="2.5" cy="2.5" r="2.5" transform="translate(2645 2884)"/></g><g transform="translate(-2240 -2674)"><circle class="c" cx="2.5" cy="2.5" r="2.5" transform="translate(2645 2884)"/></g><g transform="translate(-2225 -2674)"><circle class="c" cx="2.5" cy="2.5" r="2.5" transform="translate(2645 2884)"/></g><g transform="translate(-2210 -2674)"><circle class="c" cx="2.5" cy="2.5" r="2.5" transform="translate(2645 2884)"/></g><g transform="translate(-2195 -2674)"><circle class="c" cx="2.5" cy="2.5" r="2.5" transform="translate(2645 2884)"/></g><g transform="translate(-2645 -2659)"><circle class="c" cx="2.5" cy="2.5" r="2.5" transform="translate(2645 2884)"/></g><g transform="translate(-2630 -2659)"><circle class="c" cx="2.5" cy="2.5" r="2.5" transform="translate(2645 2884)"/></g><g transform="translate(-2615 -2659)"><circle class="c" cx="2.5" cy="2.5" r="2.5" transform="translate(2645 2884)"/></g><g transform="translate(-2600 -2659)"><circle class="c" cx="2.5" cy="2.5" r="2.5" transform="translate(2645 2884)"/></g><g transform="translate(-2585 -2659)"><circle class="c" cx="2.5" cy="2.5" r="2.5" transform="translate(2645 2884)"/></g><g transform="translate(-2570 -2659)"><circle class="c" cx="2.5" cy="2.5" r="2.5" transform="translate(2645 2884)"/></g><g transform="translate(-2555 -2659)"><circle class="c" cx="2.5" cy="2.5" r="2.5" transform="translate(2645 2884)"/></g><g transform="translate(-2540 -2659)"><circle class="c" cx="2.5" cy="2.5" r="2.5" transform="translate(2645 2884)"/></g><g transform="translate(-2525 -2659)"><circle class="c" cx="2.5" cy="2.5" r="2.5" transform="translate(2645 2884)"/></g><g transform="translate(-2510 -2659)"><circle class="c" cx="2.5" cy="2.5" r="2.5" transform="translate(2645 2884)"/></g><g transform="translate(-2495 -2659)"><circle class="c" cx="2.5" cy="2.5" r="2.5" transform="translate(2645 2884)"/></g><g transform="translate(-2480 -2659)"><circle class="c" cx="2.5" cy="2.5" r="2.5" transform="translate(2645 2884)"/></g><g transform="translate(-2465 -2659)"><circle class="c" cx="2.5" cy="2.5" r="2.5" transform="translate(2645 2884)"/></g><g transform="translate(-2450 -2659)"><circle class="c" cx="2.5" cy="2.5" r="2.5" transform="translate(2645 2884)"/></g><g transform="translate(-2435 -2659)"><circle class="c" cx="2.5" cy="2.5" r="2.5" transform="translate(2645 2884)"/></g><g transform="translate(-2420 -2659)"><circle class="c" cx="2.5" cy="2.5" r="2.5" transform="translate(2645 2884)"/></g><g transform="translate(-2405 -2659)"><circle class="c" cx="2.5" cy="2.5" r="2.5" transform="translate(2645 2884)"/></g><g transform="translate(-2390 -2659)"><circle class="c" cx="2.5" cy="2.5" r="2.5" transform="translate(2645 2884)"/></g><g transform="translate(-2375 -2659)"><circle class="c" cx="2.5" cy="2.5" r="2.5" transform="translate(2645 2884)"/></g><g transform="translate(-2360 -2659)"><circle class="c" cx="2.5" cy="2.5" r="2.5" transform="translate(2645 2884)"/></g><g transform="translate(-2345 -2659)"><circle class="c" cx="2.5" cy="2.5" r="2.5" transform="translate(2645 2884)"/></g><g transform="translate(-2330 -2659)"><circle class="c" cx="2.5" cy="2.5" r="2.5" transform="translate(2645 2884)"/></g><g transform="translate(-2315 -2659)"><circle class="c" cx="2.5" cy="2.5" r="2.5" transform="translate(2645 2884)"/></g><g transform="translate(-2300 -2659)"><circle class="c" cx="2.5" cy="2.5" r="2.5" transform="translate(2645 2884)"/></g><g transform="translate(-2285 -2659)"><circle class="c" cx="2.5" cy="2.5" r="2.5" transform="translate(2645 2884)"/></g><g transform="translate(-2270 -2659)"><circle class="c" cx="2.5" cy="2.5" r="2.5" transform="translate(2645 2884)"/></g><g transform="translate(-2255 -2659)"><circle class="c" cx="2.5" cy="2.5" r="2.5" transform="translate(2645 2884)"/></g><g transform="translate(-2240 -2659)"><circle class="c" cx="2.5" cy="2.5" r="2.5" transform="translate(2645 2884)"/></g><g transform="translate(-2225 -2659)"><circle class="c" cx="2.5" cy="2.5" r="2.5" transform="translate(2645 2884)"/></g><g transform="translate(-2210 -2659)"><circle class="c" cx="2.5" cy="2.5" r="2.5" transform="translate(2645 2884)"/></g><g transform="translate(-2195 -2659)"><circle class="c" cx="2.5" cy="2.5" r="2.5" transform="translate(2645 2884)"/></g><g transform="translate(-2645 -2644)"><circle class="c" cx="2.5" cy="2.5" r="2.5" transform="translate(2645 2884)"/></g><g transform="translate(-2630 -2644)"><circle class="c" cx="2.5" cy="2.5" r="2.5" transform="translate(2645 2884)"/></g><g transform="translate(-2615 -2644)"><circle class="c" cx="2.5" cy="2.5" r="2.5" transform="translate(2645 2884)"/></g><g transform="translate(-2600 -2644)"><circle class="c" cx="2.5" cy="2.5" r="2.5" transform="translate(2645 2884)"/></g><g transform="translate(-2585 -2644)"><circle class="c" cx="2.5" cy="2.5" r="2.5" transform="translate(2645 2884)"/></g><g transform="translate(-2570 -2644)"><circle class="c" cx="2.5" cy="2.5" r="2.5" transform="translate(2645 2884)"/></g><g transform="translate(-2555 -2644)"><circle class="c" cx="2.5" cy="2.5" r="2.5" transform="translate(2645 2884)"/></g><g transform="translate(-2540 -2644)"><circle class="c" cx="2.5" cy="2.5" r="2.5" transform="translate(2645 2884)"/></g><g transform="translate(-2525 -2644)"><circle class="c" cx="2.5" cy="2.5" r="2.5" transform="translate(2645 2884)"/></g><g transform="translate(-2510 -2644)"><circle class="c" cx="2.5" cy="2.5" r="2.5" transform="translate(2645 2884)"/></g><g transform="translate(-2495 -2644)"><circle class="c" cx="2.5" cy="2.5" r="2.5" transform="translate(2645 2884)"/></g><g transform="translate(-2480 -2644)"><circle class="c" cx="2.5" cy="2.5" r="2.5" transform="translate(2645 2884)"/></g><g transform="translate(-2465 -2644)"><circle class="c" cx="2.5" cy="2.5" r="2.5" transform="translate(2645 2884)"/></g><g transform="translate(-2450 -2644)"><circle class="c" cx="2.5" cy="2.5" r="2.5" transform="translate(2645 2884)"/></g><g transform="translate(-2435 -2644)"><circle class="c" cx="2.5" cy="2.5" r="2.5" transform="translate(2645 2884)"/></g><g transform="translate(-2420 -2644)"><circle class="c" cx="2.5" cy="2.5" r="2.5" transform="translate(2645 2884)"/></g><g transform="translate(-2405 -2644)"><circle class="c" cx="2.5" cy="2.5" r="2.5" transform="translate(2645 2884)"/></g><g transform="translate(-2390 -2644)"><circle class="c" cx="2.5" cy="2.5" r="2.5" transform="translate(2645 2884)"/></g><g transform="translate(-2375 -2644)"><circle class="c" cx="2.5" cy="2.5" r="2.5" transform="translate(2645 2884)"/></g><g transform="translate(-2360 -2644)"><circle class="c" cx="2.5" cy="2.5" r="2.5" transform="translate(2645 2884)"/></g><g transform="translate(-2345 -2644)"><circle class="c" cx="2.5" cy="2.5" r="2.5" transform="translate(2645 2884)"/></g><g transform="translate(-2330 -2644)"><circle class="c" cx="2.5" cy="2.5" r="2.5" transform="translate(2645 2884)"/></g><g transform="translate(-2315 -2644)"><circle class="c" cx="2.5" cy="2.5" r="2.5" transform="translate(2645 2884)"/></g><g transform="translate(-2300 -2644)"><circle class="c" cx="2.5" cy="2.5" r="2.5" transform="translate(2645 2884)"/></g><g transform="translate(-2285 -2644)"><circle class="c" cx="2.5" cy="2.5" r="2.5" transform="translate(2645 2884)"/></g><g transform="translate(-2270 -2644)"><circle class="c" cx="2.5" cy="2.5" r="2.5" transform="translate(2645 2884)"/></g><g transform="translate(-2255 -2644)"><circle class="c" cx="2.5" cy="2.5" r="2.5" transform="translate(2645 2884)"/></g><g transform="translate(-2240 -2644)"><circle class="c" cx="2.5" cy="2.5" r="2.5" transform="translate(2645 2884)"/></g><g transform="translate(-2225 -2644)"><circle class="c" cx="2.5" cy="2.5" r="2.5" transform="translate(2645 2884)"/></g><g transform="translate(-2210 -2644)"><circle class="c" cx="2.5" cy="2.5" r="2.5" transform="translate(2645 2884)"/></g><g transform="translate(-2195 -2644)"><circle class="c" cx="2.5" cy="2.5" r="2.5" transform="translate(2645 2884)"/></g><g transform="translate(-2645 -2629)"><circle class="c" cx="2.5" cy="2.5" r="2.5" transform="translate(2645 2884)"/></g><g transform="translate(-2630 -2629)"><circle class="c" cx="2.5" cy="2.5" r="2.5" transform="translate(2645 2884)"/></g><g transform="translate(-2615 -2629)"><circle class="c" cx="2.5" cy="2.5" r="2.5" transform="translate(2645 2884)"/></g><g transform="translate(-2600 -2629)"><circle class="c" cx="2.5" cy="2.5" r="2.5" transform="translate(2645 2884)"/></g><g transform="translate(-2585 -2629)"><circle class="c" cx="2.5" cy="2.5" r="2.5" transform="translate(2645 2884)"/></g><g transform="translate(-2570 -2629)"><circle class="c" cx="2.5" cy="2.5" r="2.5" transform="translate(2645 2884)"/></g><g transform="translate(-2555 -2629)"><circle class="c" cx="2.5" cy="2.5" r="2.5" transform="translate(2645 2884)"/></g><g transform="translate(-2540 -2629)"><circle class="c" cx="2.5" cy="2.5" r="2.5" transform="translate(2645 2884)"/></g><g transform="translate(-2525 -2629)"><circle class="c" cx="2.5" cy="2.5" r="2.5" transform="translate(2645 2884)"/></g><g transform="translate(-2510 -2629)"><circle class="c" cx="2.5" cy="2.5" r="2.5" transform="translate(2645 2884)"/></g><g transform="translate(-2495 -2629)"><circle class="c" cx="2.5" cy="2.5" r="2.5" transform="translate(2645 2884)"/></g><g transform="translate(-2480 -2629)"><circle class="c" cx="2.5" cy="2.5" r="2.5" transform="translate(2645 2884)"/></g><g transform="translate(-2465 -2629)"><circle class="c" cx="2.5" cy="2.5" r="2.5" transform="translate(2645 2884)"/></g><g transform="translate(-2450 -2629)"><circle class="c" cx="2.5" cy="2.5" r="2.5" transform="translate(2645 2884)"/></g><g transform="translate(-2435 -2629)"><circle class="c" cx="2.5" cy="2.5" r="2.5" transform="translate(2645 2884)"/></g><g transform="translate(-2420 -2629)"><circle class="c" cx="2.5" cy="2.5" r="2.5" transform="translate(2645 2884)"/></g><g transform="translate(-2405 -2629)"><circle class="c" cx="2.5" cy="2.5" r="2.5" transform="translate(2645 2884)"/></g><g transform="translate(-2390 -2629)"><circle class="c" cx="2.5" cy="2.5" r="2.5" transform="translate(2645 2884)"/></g><g transform="translate(-2375 -2629)"><circle class="c" cx="2.5" cy="2.5" r="2.5" transform="translate(2645 2884)"/></g><g transform="translate(-2360 -2629)"><circle class="c" cx="2.5" cy="2.5" r="2.5" transform="translate(2645 2884)"/></g><g transform="translate(-2345 -2629)"><circle class="c" cx="2.5" cy="2.5" r="2.5" transform="translate(2645 2884)"/></g><g transform="translate(-2330 -2629)"><circle class="c" cx="2.5" cy="2.5" r="2.5" transform="translate(2645 2884)"/></g><g transform="translate(-2315 -2629)"><circle class="c" cx="2.5" cy="2.5" r="2.5" transform="translate(2645 2884)"/></g><g transform="translate(-2300 -2629)"><circle class="c" cx="2.5" cy="2.5" r="2.5" transform="translate(2645 2884)"/></g><g transform="translate(-2285 -2629)"><circle class="c" cx="2.5" cy="2.5" r="2.5" transform="translate(2645 2884)"/></g><g transform="translate(-2270 -2629)"><circle class="c" cx="2.5" cy="2.5" r="2.5" transform="translate(2645 2884)"/></g><g transform="translate(-2255 -2629)"><circle class="c" cx="2.5" cy="2.5" r="2.5" transform="translate(2645 2884)"/></g><g transform="translate(-2240 -2629)"><circle class="c" cx="2.5" cy="2.5" r="2.5" transform="translate(2645 2884)"/></g><g transform="translate(-2225 -2629)"><circle class="c" cx="2.5" cy="2.5" r="2.5" transform="translate(2645 2884)"/></g><g transform="translate(-2210 -2629)"><circle class="c" cx="2.5" cy="2.5" r="2.5" transform="translate(2645 2884)"/></g><g transform="translate(-2195 -2629)"><circle class="c" cx="2.5" cy="2.5" r="2.5" transform="translate(2645 2884)"/></g><g transform="translate(-2645 -2614)"><circle class="c" cx="2.5" cy="2.5" r="2.5" transform="translate(2645 2884)"/></g><g transform="translate(-2630 -2614)"><circle class="c" cx="2.5" cy="2.5" r="2.5" transform="translate(2645 2884)"/></g><g transform="translate(-2615 -2614)"><circle class="c" cx="2.5" cy="2.5" r="2.5" transform="translate(2645 2884)"/></g><g transform="translate(-2600 -2614)"><circle class="c" cx="2.5" cy="2.5" r="2.5" transform="translate(2645 2884)"/></g><g transform="translate(-2585 -2614)"><circle class="c" cx="2.5" cy="2.5" r="2.5" transform="translate(2645 2884)"/></g><g transform="translate(-2570 -2614)"><circle class="c" cx="2.5" cy="2.5" r="2.5" transform="translate(2645 2884)"/></g><g transform="translate(-2555 -2614)"><circle class="c" cx="2.5" cy="2.5" r="2.5" transform="translate(2645 2884)"/></g><g transform="translate(-2540 -2614)"><circle class="c" cx="2.5" cy="2.5" r="2.5" transform="translate(2645 2884)"/></g><g transform="translate(-2525 -2614)"><circle class="c" cx="2.5" cy="2.5" r="2.5" transform="translate(2645 2884)"/></g><g transform="translate(-2510 -2614)"><circle class="c" cx="2.5" cy="2.5" r="2.5" transform="translate(2645 2884)"/></g><g transform="translate(-2495 -2614)"><circle class="c" cx="2.5" cy="2.5" r="2.5" transform="translate(2645 2884)"/></g><g transform="translate(-2480 -2614)"><circle class="c" cx="2.5" cy="2.5" r="2.5" transform="translate(2645 2884)"/></g><g transform="translate(-2465 -2614)"><circle class="c" cx="2.5" cy="2.5" r="2.5" transform="translate(2645 2884)"/></g><g transform="translate(-2450 -2614)"><circle class="c" cx="2.5" cy="2.5" r="2.5" transform="translate(2645 2884)"/></g><g transform="translate(-2435 -2614)"><circle class="c" cx="2.5" cy="2.5" r="2.5" transform="translate(2645 2884)"/></g><g transform="translate(-2420 -2614)"><circle class="c" cx="2.5" cy="2.5" r="2.5" transform="translate(2645 2884)"/></g><g transform="translate(-2405 -2614)"><circle class="c" cx="2.5" cy="2.5" r="2.5" transform="translate(2645 2884)"/></g><g transform="translate(-2390 -2614)"><circle class="c" cx="2.5" cy="2.5" r="2.5" transform="translate(2645 2884)"/></g><g transform="translate(-2375 -2614)"><circle class="c" cx="2.5" cy="2.5" r="2.5" transform="translate(2645 2884)"/></g><g transform="translate(-2360 -2614)"><circle class="c" cx="2.5" cy="2.5" r="2.5" transform="translate(2645 2884)"/></g><g transform="translate(-2345 -2614)"><circle class="c" cx="2.5" cy="2.5" r="2.5" transform="translate(2645 2884)"/></g><g transform="translate(-2330 -2614)"><circle class="c" cx="2.5" cy="2.5" r="2.5" transform="translate(2645 2884)"/></g><g transform="translate(-2315 -2614)"><circle class="c" cx="2.5" cy="2.5" r="2.5" transform="translate(2645 2884)"/></g><g transform="translate(-2300 -2614)"><circle class="c" cx="2.5" cy="2.5" r="2.5" transform="translate(2645 2884)"/></g><g transform="translate(-2285 -2614)"><circle class="c" cx="2.5" cy="2.5" r="2.5" transform="translate(2645 2884)"/></g><g transform="translate(-2270 -2614)"><circle class="c" cx="2.5" cy="2.5" r="2.5" transform="translate(2645 2884)"/></g><g transform="translate(-2255 -2614)"><circle class="c" cx="2.5" cy="2.5" r="2.5" transform="translate(2645 2884)"/></g><g transform="translate(-2240 -2614)"><circle class="c" cx="2.5" cy="2.5" r="2.5" transform="translate(2645 2884)"/></g><g transform="translate(-2225 -2614)"><circle class="c" cx="2.5" cy="2.5" r="2.5" transform="translate(2645 2884)"/></g><g transform="translate(-2210 -2614)"><circle class="c" cx="2.5" cy="2.5" r="2.5" transform="translate(2645 2884)"/></g><g transform="translate(-2195 -2614)"><circle class="c" cx="2.5" cy="2.5" r="2.5" transform="translate(2645 2884)"/></g><g transform="translate(-2645 -2599)"><circle class="c" cx="2.5" cy="2.5" r="2.5" transform="translate(2645 2884)"/></g><g transform="translate(-2630 -2599)"><circle class="c" cx="2.5" cy="2.5" r="2.5" transform="translate(2645 2884)"/></g><g transform="translate(-2615 -2599)"><circle class="c" cx="2.5" cy="2.5" r="2.5" transform="translate(2645 2884)"/></g><g transform="translate(-2600 -2599)"><circle class="c" cx="2.5" cy="2.5" r="2.5" transform="translate(2645 2884)"/></g><g transform="translate(-2585 -2599)"><circle class="c" cx="2.5" cy="2.5" r="2.5" transform="translate(2645 2884)"/></g><g transform="translate(-2570 -2599)"><circle class="c" cx="2.5" cy="2.5" r="2.5" transform="translate(2645 2884)"/></g><g transform="translate(-2555 -2599)"><circle class="c" cx="2.5" cy="2.5" r="2.5" transform="translate(2645 2884)"/></g><g transform="translate(-2540 -2599)"><circle class="c" cx="2.5" cy="2.5" r="2.5" transform="translate(2645 2884)"/></g><g transform="translate(-2525 -2599)"><circle class="c" cx="2.5" cy="2.5" r="2.5" transform="translate(2645 2884)"/></g><g transform="translate(-2510 -2599)"><circle class="c" cx="2.5" cy="2.5" r="2.5" transform="translate(2645 2884)"/></g><g transform="translate(-2495 -2599)"><circle class="c" cx="2.5" cy="2.5" r="2.5" transform="translate(2645 2884)"/></g><g transform="translate(-2480 -2599)"><circle class="c" cx="2.5" cy="2.5" r="2.5" transform="translate(2645 2884)"/></g><g transform="translate(-2465 -2599)"><circle class="c" cx="2.5" cy="2.5" r="2.5" transform="translate(2645 2884)"/></g><g transform="translate(-2450 -2599)"><circle class="c" cx="2.5" cy="2.5" r="2.5" transform="translate(2645 2884)"/></g><g transform="translate(-2435 -2599)"><circle class="c" cx="2.5" cy="2.5" r="2.5" transform="translate(2645 2884)"/></g><g transform="translate(-2420 -2599)"><circle class="c" cx="2.5" cy="2.5" r="2.5" transform="translate(2645 2884)"/></g><g transform="translate(-2405 -2599)"><circle class="c" cx="2.5" cy="2.5" r="2.5" transform="translate(2645 2884)"/></g><g transform="translate(-2390 -2599)"><circle class="c" cx="2.5" cy="2.5" r="2.5" transform="translate(2645 2884)"/></g><g transform="translate(-2375 -2599)"><circle class="c" cx="2.5" cy="2.5" r="2.5" transform="translate(2645 2884)"/></g><g transform="translate(-2360 -2599)"><circle class="c" cx="2.5" cy="2.5" r="2.5" transform="translate(2645 2884)"/></g><g transform="translate(-2345 -2599)"><circle class="c" cx="2.5" cy="2.5" r="2.5" transform="translate(2645 2884)"/></g><g transform="translate(-2330 -2599)"><circle class="c" cx="2.5" cy="2.5" r="2.5" transform="translate(2645 2884)"/></g><g transform="translate(-2315 -2599)"><circle class="c" cx="2.5" cy="2.5" r="2.5" transform="translate(2645 2884)"/></g><g transform="translate(-2300 -2599)"><circle class="c" cx="2.5" cy="2.5" r="2.5" transform="translate(2645 2884)"/></g><g transform="translate(-2285 -2599)"><circle class="c" cx="2.5" cy="2.5" r="2.5" transform="translate(2645 2884)"/></g><g transform="translate(-2270 -2599)"><circle class="c" cx="2.5" cy="2.5" r="2.5" transform="translate(2645 2884)"/></g><g transform="translate(-2255 -2599)"><circle class="c" cx="2.5" cy="2.5" r="2.5" transform="translate(2645 2884)"/></g><g transform="translate(-2240 -2599)"><circle class="c" cx="2.5" cy="2.5" r="2.5" transform="translate(2645 2884)"/></g><g transform="translate(-2225 -2599)"><circle class="c" cx="2.5" cy="2.5" r="2.5" transform="translate(2645 2884)"/></g><g transform="translate(-2210 -2599)"><circle class="c" cx="2.5" cy="2.5" r="2.5" transform="translate(2645 2884)"/></g><g transform="translate(-2195 -2599)"><circle class="c" cx="2.5" cy="2.5" r="2.5" transform="translate(2645 2884)"/></g></g></svg>